<svg xmlns="http://www.w3.org/2000/svg" style="display:none">
<symbol id="文章类型" viewBox="0 0 1024 1024"><path d="M848.40475 65.083298 175.445848 65.083298c-61.699224 0-111.716384 50.114374-111.716384 111.716384l0 672.958902c0 61.699224 50.114374 111.716384 111.716384 111.716384l672.958902 0c61.699224 0 111.716384-50.114374 111.716384-111.716384L960.121134 176.799682C960.120111 115.100458 910.005736 65.083298 848.40475 65.083298zM848.072175 793.261848c0 30.629601-25.14468 56.163137-56.163137 56.163137L231.94156 849.424986c-30.629601 0-56.163137-25.14468-56.163137-56.163137L175.778422 233.295394c0-30.629601 25.14468-56.163137 56.163137-56.163137l559.967478 0c30.629601 0 56.163137 25.14468 56.163137 56.163137L848.072175 793.261848z" p-id="2327"></path><path d="M287.827381 625.328092l112.048959 0 0 112.048959-112.048959 0 0-112.048959Z" p-id="2328"></path><path d="M287.827381 457.254142l112.048959 0 0 112.048959-112.048959 0 0-112.048959Z" p-id="2329"></path><path d="M287.827381 289.181215l112.048959 0 0 112.048959-112.048959 0 0-112.048959Z" p-id="2330"></path><path d="M455.900308 625.328092l280.121885 0 0 112.048959-280.121885 0 0-112.048959Z" p-id="2331"></path><path d="M455.900308 457.254142l280.121885 0 0 112.048959-280.121885 0 0-112.048959Z" p-id="2332"></path><path d="M455.900308 289.181215l280.121885 0 0 112.048959-280.121885 0 0-112.048959Z" p-id="2333"></path></symbol>
<symbol id="右箭头" viewBox="0 0 1024 1024"><path d="M792.412504 511.827061l-48.762587-48.793286-0.208754 0.206708L280.350083 0.11154l-48.762587 48.762587 463.096197 463.125873L231.587496 975.129966l48.762587 48.75747 463.09108-463.124849 0.208754 0.206708 48.762587-48.798403-0.172939-0.171915L792.412504 511.827061zM792.412504 511.827061" p-id="1546" fill="currentColor"></path></symbol>
<symbol id="评论" viewBox="0 0 1024 1024"><path d="M829.786162 131.227785H194.426692c-50.482985 0-87.124351 39.031417-87.124351 92.799658v466.188866c0 51.975398 34.949478 86.924876 87.124351 86.924876h186.196525l111.418945 108.233427c5.974519 5.974519 13.840402 8.961779 21.707501 8.961779 7.96562 0 15.831503-3.086997 21.904544-9.061517l109.329323-108.033952h184.802632c51.975398 0 86.924876-34.949478 86.924876-86.924876V224.027443c0-53.768241-36.542845-92.799658-86.924876-92.799658z m25.191016 558.988524c0 17.922341-7.268674 25.191015-25.191016 25.191015H632.835016a30.940517 30.940517 0 0 0-22.602705 9.0603L513.550188 819.75707l-98.574702-95.487705c-6.273732-6.173994-14.437611-9.161254-22.602706-8.862041H194.426692c-18.022079 0-25.39049-7.268674-25.39049-25.191015V224.027443c0-9.360729 2.488572-31.067014 25.39049-31.067013h635.35947c22.701227 0 25.191015 21.706285 25.191016 31.067013v466.188866z" p-id="3826"></path><path d="M325.560821 451.048227z m-54.763182 0c0 30.244787 24.518396 54.763183 54.763182 54.763183s54.763183-24.518396 54.763183-54.763183c0-30.246004-24.518396-54.764399-54.763183-54.764399s-54.763183 24.518396-54.763182 54.764399M520.719125 451.048227z m-54.764399 0a54.764399 54.764399 0 0 0 109.527582 0c0-30.246004-24.518396-54.764399-54.763183-54.764399s-54.764399 24.518396-54.764399 54.764399M714.583273 450.350065z m-54.764399 0c0 30.246004 24.518396 54.764399 54.764399 54.764399 30.244787 0 54.763183-24.518396 54.763183-54.764399 0-30.244787-24.518396-54.763183-54.763183-54.763183-30.246004 0-54.764399 24.518396-54.764399 54.763183" p-id="3827"></path></symbol>
<symbol id="勾" viewBox="0 0 1024 1024"><path d="M873.153 263.903c-18.201-1.753-62.593 31.299-62.593 31.299l-424.415 318.307-138.923-99.231c0 0-57.963-49.286-93.893-31.299-38 19.026 0 62.593 0 62.593l228.609 219.049 491.214-469.417c0 0 28.298-28.566 0-31.299z" p-id="4548"></path></symbol>
<symbol id="详情" viewBox="0 0 1024 1024"><path d="M870.4 32H153.6c-44.8 0-76.8 32-76.8 76.8v806.4c0 44.8 32 76.8 76.8 76.8h723.2c44.8 0 76.8-32 76.8-76.8V108.8C947.2 64 915.2 32 870.4 32zM627.2 787.2H224v-115.2h396.8v115.2h6.4z m172.8-217.6h-576V454.4h569.6v115.2z m0-217.6h-576V236.8h569.6v115.2z" fill="" p-id="1548"></path></symbol>
<symbol id="左箭头" viewBox="0 0 1024 1024"><path d="M713.268468 961.306122a27.864628 27.864628 0 0 1-19.653619-8.080025L306.036603 569.760518c-14.886035-14.740726-23.14821-34.43016-23.25668-55.467289-0.12689-21.037129 7.934716-40.817638 22.655999-55.703673l383.483998-387.596665c10.864442-10.991332 28.55229-11.063987 39.526226-0.217964 10.972912 10.864442 11.082406 28.55229 0.217964 39.526225l-383.483998 387.615085c-4.222161 4.276397-6.532787 9.990538-6.496971 16.087397 0.01842 6.095835 2.4017 11.792581 6.679119 16.013718l387.56085 383.465579c10.972912 10.864442 11.082406 28.55229 0.217964 39.526225a27.864628 27.864628 0 0 1-19.872606 8.296966z" fill="currentColor" p-id="2265"></path></symbol>
</svg>