<svg xmlns="http://www.w3.org/2000/svg" style="display:none">
<symbol id="我的" viewBox="0 0 1024 1024"><path d="M811.991422 675.359578 655.977136 614.621239c-8.739035-3.388167-29.064966-12.621459-35.870975-19.277042-1.064238-1.648546-2.698458-10.942213 3.402493-31.373545 1.183965-3.942799 9.742898-16.863063 17.313318-28.27088 26.142403-39.422871 69.882604-105.386212 69.882604-168.590719 0-133.589554-89.518826-242.265696-199.544709-242.265696s-199.544709 108.683305-199.544709 242.272859c0 68.870554 49.376571 144.314827 73.104995 180.574658 4.166903 6.385431 7.314593 11.092639 8.694009 13.746072 5.995551 11.467169 4.242627 29.260417 1.889023 32.933063-4.527107 5.066389-25.182542 13.880125-41.641399 18.947538l-141.294027 62.83714c-40.48711 14.540158-68.75799 52.419883-68.75799 92.112907l0 16.578584c0 44.490284 35.496445 76.777641 84.407412 76.777641l567.93494 0c48.926316 0 84.438111-32.28838 84.438111-76.777641l0-16.578584C880.390231 728.004589 852.104001 689.734984 811.991422 675.359578z" p-id="3990" fill="currentColor"></path></symbol>
<symbol id="主页" viewBox="0 0 1024 1024"><path d="M170.666667 554.666667v426.666666h256v-256h170.666666v256h256V554.666667h128L512 42.666667 42.666667 554.666667h128z" fill="currentColor" p-id="2648"></path></symbol>
<symbol id="发现" viewBox="0 0 1024 1024"><path d="M511.88 22.632c-270.646 0-490.05 219.403-490.05 490.05 0 270.648 219.404 490.052 490.05 490.052s490.05-219.403 490.05-490.051-219.4-490.05-490.05-490.05z m47.703 527.742L236.218 765.268 453.16 450.09l319.272-204.661-212.848 304.945z" p-id="20020" fill="currentColor"></path><path d="M469.532 503.302a36 36 0 1 0 73.678 0 36 36 0 1 0-73.678 0z" p-id="20021" fill="currentColor"></path></symbol>
<symbol id="左箭头" viewBox="0 0 1024 1024"><path d="M713.268468 961.306122a27.864628 27.864628 0 0 1-19.653619-8.080025L306.036603 569.760518c-14.886035-14.740726-23.14821-34.43016-23.25668-55.467289-0.12689-21.037129 7.934716-40.817638 22.655999-55.703673l383.483998-387.596665c10.864442-10.991332 28.55229-11.063987 39.526226-0.217964 10.972912 10.864442 11.082406 28.55229 0.217964 39.526225l-383.483998 387.615085c-4.222161 4.276397-6.532787 9.990538-6.496971 16.087397 0.01842 6.095835 2.4017 11.792581 6.679119 16.013718l387.56085 383.465579c10.972912 10.864442 11.082406 28.55229 0.217964 39.526225a27.864628 27.864628 0 0 1-19.872606 8.296966z" fill="currentColor" p-id="2265"></path></symbol>
</svg>