<?xml version="1.0" standalone="no"?>
<!DOCTYPE svg PUBLIC "-//W3C//DTD SVG 20010904//EN"
 "http://www.w3.org/TR/2001/REC-SVG-20010904/DTD/svg10.dtd">
<svg version="1.0" xmlns="http://www.w3.org/2000/svg"
 width="128.000000pt" height="128.000000pt" viewBox="0 0 128.000000 128.000000"
 preserveAspectRatio="xMidYMid meet">
<metadata>
Created by potrace 1.11, written by Peter Selinger 2001-2013
</metadata>
<g transform="translate(0.000000,128.000000) scale(0.100000,-0.100000)"
fill="#000000" stroke="none">
<path d="M824 1272 c-57 -6 -69 -31 -71 -151 0 -58 -2 -108 -2 -111 -1 -3
-130 -5 -289 -5 -407 -1 -376 34 -377 -422 l0 -333 -24 -16 c-36 -25 -60 -88
-51 -131 10 -41 42 -78 79 -91 14 -5 266 -9 561 -8 494 1 538 2 563 19 72 47
81 133 19 195 l-38 38 1 323 c0 353 -1 363 -57 402 -22 16 -47 22 -106 23
l-77 3 -1 112 c-1 89 -5 115 -18 130 -18 20 -59 28 -112 23z"/>
</g>
</svg>
