<svg xmlns="http://www.w3.org/2000/svg" xmlns:xlink="http://www.w3.org/1999/xlink"><defs><style>
    .sprite-symbol-usage {display: none;}
    .sprite-symbol-usage:target {display: inline;}
  </style><symbol class="icon" viewBox="0 0 1246 1024" id="API"><defs><style type="text/css">@font-face { font-weight: 400; font-style: normal; font-family: Inter-Loom; src: url("https://cdn.useloom.com/assets/fonts/inter/Inter-UI-Regular.woff2") format("woff2"); }
@font-face { font-weight: 400; font-style: italic; font-family: Inter-Loom; src: url("https://cdn.useloom.com/assets/fonts/inter/Inter-UI-Italic.woff2") format("woff2"); }
@font-face { font-weight: 500; font-style: normal; font-family: Inter-Loom; src: url("https://cdn.useloom.com/assets/fonts/inter/Inter-UI-Medium.woff2") format("woff2"); }
@font-face { font-weight: 500; font-style: italic; font-family: Inter-Loom; src: url("https://cdn.useloom.com/assets/fonts/inter/Inter-UI-MediumItalic.woff2") format("woff2"); }
@font-face { font-weight: 700; font-style: normal; font-family: Inter-Loom; src: url("https://cdn.useloom.com/assets/fonts/inter/Inter-UI-Bold.woff2") format("woff2"); }
@font-face { font-weight: 700; font-style: italic; font-family: Inter-Loom; src: url("https://cdn.useloom.com/assets/fonts/inter/Inter-UI-BoldItalic.woff2") format("woff2"); }
@font-face { font-weight: 900; font-style: normal; font-family: Inter-Loom; src: url("https://cdn.useloom.com/assets/fonts/inter/Inter-UI-Black.woff2") format("woff2"); }
@font-face { font-weight: 900; font-style: italic; font-family: Inter-Loom; src: url("https://cdn.useloom.com/assets/fonts/inter/Inter-UI-BlackItalic.woff2") format("woff2"); }
</style></defs><path d="M303.339977 664.942675l106.011591-276.040855h39.350086l112.971638 276.040855h-41.612716l-32.193289-83.618933h-115.431018l-30.311864 83.618933h-38.784428z m79.647033-113.352842h93.579424l-28.811641-76.44984q-13.182279-34.775639-19.576668-57.242078a351.974224 351.974224 0 0 1-14.879251 52.716819zM590.853841 664.942675V388.90182h104.130165q27.483576 0 41.99392 2.631537 20.339076 3.393945 34.074715 12.89945t22.134424 26.647387a84.578091 84.578091 0 0 1 8.37419 37.653114q0 35.20603-22.404955 59.590786t-80.962803 24.384757H627.387936v112.221527h-36.534095z m36.534095-144.796021h71.322031q35.402781 0 50.269735-13.182278t14.916142-37.087457q0-17.314038-8.755394-29.660127a40.936387 40.936387 0 0 0-23.068988-16.281098q-9.222676-2.45938-34.087012-2.459381H627.387936v98.670341zM854.278074 664.942675V388.90182h36.534095v276.040855h-36.534095z" fill="#231815" p-id="2495" /><path d="M914.938691 915.270707H623.108614a32.857322 32.857322 0 0 1 0-65.702347h291.830077c146.443805 0 265.613082-119.144683 265.613081-265.613081 0-133.728808-99.912328-247.020166-232.411446-263.522609l-23.364114-2.914365-4.734307-23.081285c-27.213044-132.560603-145.361678-228.722376-280.922724-228.722376-158.138159 0-286.788347 128.650188-286.788347 286.788347 0 3.209491 0.073781 6.62803 0.221344 10.772086l1.340362 37.739192-37.616223-3.910415a230.751365 230.751365 0 0 0-23.745317-1.22969c-125.071789 0-226.828653 101.756863-226.828653 226.828653s101.756863 226.828653 226.828653 226.828652h79.032189a32.857322 32.857322 0 0 1 0 65.702347h-79.032189C131.232537 915.270707 0.049188 784.03817 0.049188 622.739707c0-159.540006 128.379656-289.653525 287.255629-292.481812A352.515287 352.515287 0 0 1 863.205624 80.434035a353.941728 353.941728 0 0 1 115.775332 178.464938c153.858837 30.12741 267.223976 166.008176 267.223976 325.080899a331.290835 331.290835 0 0 1-331.266241 331.290835z" fill="#231815" p-id="2496" /><path d="M698.033638 1023.999914a32.734353 32.734353 0 0 1-22.195908-8.607831L532.505041 883.913607l135.684016-141.315997a32.857322 32.857322 0 0 1 47.39226 45.498537l-89.115648 92.829313 93.776174 86.016829a32.857322 32.857322 0 0 1-22.208205 57.057625z" fill="#231815" p-id="2497" /></symbol><symbol class="icon" viewBox="0 0 1024 1024" id="CSS"><defs><style type="text/css">@font-face { font-weight: 400; font-style: normal; font-family: Inter-Loom; src: url("https://cdn.useloom.com/assets/fonts/inter/Inter-UI-Regular.woff2") format("woff2"); }
@font-face { font-weight: 400; font-style: italic; font-family: Inter-Loom; src: url("https://cdn.useloom.com/assets/fonts/inter/Inter-UI-Italic.woff2") format("woff2"); }
@font-face { font-weight: 500; font-style: normal; font-family: Inter-Loom; src: url("https://cdn.useloom.com/assets/fonts/inter/Inter-UI-Medium.woff2") format("woff2"); }
@font-face { font-weight: 500; font-style: italic; font-family: Inter-Loom; src: url("https://cdn.useloom.com/assets/fonts/inter/Inter-UI-MediumItalic.woff2") format("woff2"); }
@font-face { font-weight: 700; font-style: normal; font-family: Inter-Loom; src: url("https://cdn.useloom.com/assets/fonts/inter/Inter-UI-Bold.woff2") format("woff2"); }
@font-face { font-weight: 700; font-style: italic; font-family: Inter-Loom; src: url("https://cdn.useloom.com/assets/fonts/inter/Inter-UI-BoldItalic.woff2") format("woff2"); }
@font-face { font-weight: 900; font-style: normal; font-family: Inter-Loom; src: url("https://cdn.useloom.com/assets/fonts/inter/Inter-UI-Black.woff2") format("woff2"); }
@font-face { font-weight: 900; font-style: italic; font-family: Inter-Loom; src: url("https://cdn.useloom.com/assets/fonts/inter/Inter-UI-BlackItalic.woff2") format("woff2"); }
</style></defs><path d="M354.40128 0c-87.04 0-157.44 70.55872-157.44 157.59872v275.68128H78.72c-21.6576 0-39.36256 17.69984-39.36256 39.36256v236.31872c0 21.6576 17.69984 39.35744 39.36256 39.35744h118.24128v118.08256c0 87.04 70.4 157.59872 157.44 157.59872h472.63744c87.04 0 157.59872-70.55872 157.59872-157.59872V315.0336c0-41.74848-38.9888-81.93024-107.52-149.27872l-29.11744-29.12256L818.87744 107.52C751.5392 38.9888 711.39328 0 669.59872 0H354.4064z m0 78.72h287.20128c28.35456 7.0912 27.99616 42.1376 27.99616 76.8v120.16128c0 21.6576 17.69984 39.35744 39.36256 39.35744h118.07744c39.38816 0 78.87872-0.0256 78.87872 39.36256v512c0 43.32032-35.55328 78.87872-78.87872 78.87872H354.4064c-43.32544 0-78.72-35.5584-78.72-78.87872v-118.08256h393.91744c21.66272 0 39.36256-17.69472 39.36256-39.35744V472.64256c0-21.66272-17.69984-39.36256-39.36256-39.36256H275.68128V157.59872c0-43.32032 35.39456-78.87872 78.72-78.87872zM246.55872 505.44128c17.92 0 33.28 3.2 46.08 9.6l-9.6 19.2c-12.16-6.4-24.32-9.6-36.48-9.6-16.64 0-30.39744 6.4-41.27744 19.2-10.24 12.16-15.36 29.44-15.36 51.84 0 23.04 4.79744 40.63744 14.39744 52.79744 9.6 11.52 23.68 17.28 42.24 17.28 10.24 0 23.36256-2.23744 39.36256-6.71744v19.2c-11.52 4.48-25.92256 6.71744-43.20256 6.71744-23.68 0-42.24-7.35744-55.68-22.07744-13.44-15.36-20.15744-38.08256-20.15744-68.16256 0-28.16 7.04-49.92 21.12-65.28 14.72-16 34.23744-23.99744 58.55744-23.99744z m120.00256 0c17.28 0 32.64 3.2 46.08 9.6l-7.68 18.23744c-13.44-5.76-26.24-8.63744-38.4-8.63744-10.24 0-17.92 2.23744-23.04 6.71744s-7.68 10.56256-7.68 18.24256c0 8.96 1.92 15.67744 5.76 20.15744 4.48 3.84 15.03744 9.6 31.67744 17.28 17.28 7.04 28.48256 14.40256 33.60256 22.08256 5.76 7.04 8.63744 16 8.63744 26.88 0 14.72-5.12 26.55744-15.36 35.51744s-24.96 13.44-44.16 13.44c-18.56 0-33.28-2.56-44.16-7.68v-21.12c15.36 6.4 30.08 9.6 44.16 9.6 12.8 0 22.08256-2.23744 27.84256-6.71744 6.4-4.48 9.6-11.52 9.6-21.12 0-7.68-2.24256-14.08-6.72256-19.2-3.2-3.2-15.03744-9.28256-35.51744-18.24256-13.44-6.4-23.04-13.44-28.8-21.12s-8.64256-17.59744-8.64256-29.75744c0-13.44 4.48-24.00256 13.44-31.68256 9.6-8.32 22.72256-12.47744 39.36256-12.47744z m127.67744 0c17.28 0 32.64 3.2 46.08 9.6l-7.68 18.23744c-13.44-5.76-26.24-8.63744-38.4-8.63744-10.24 0-17.92 2.23744-23.04 6.71744s-7.68 10.56256-7.68 18.24256c0 8.96 1.92 15.67744 5.76 20.15744 4.48 3.84 15.04256 9.6 31.68256 17.28 17.28 7.04 28.47744 14.40256 33.59744 22.08256 5.76 7.04 8.64256 16 8.64256 26.88 0 14.72-5.12 26.55744-15.36 35.51744s-24.96 13.44-44.16 13.44c-18.56 0-33.28-2.56-44.16-7.68v-21.12c15.36 6.4 30.08 9.6 44.16 9.6 12.8 0 22.07744-2.23744 27.83744-6.71744 6.4-4.48 9.6-11.52 9.6-21.12 0-7.68-2.23744-14.08-6.71744-19.2-3.2-3.2-15.04256-9.28256-35.52256-18.24256-13.44-6.4-23.04-13.44-28.8-21.12s-8.63744-17.59744-8.63744-29.75744c0-13.44 4.48-24.00256 13.44-31.68256 9.6-8.32 22.71744-12.47744 39.35744-12.47744z" p-id="4182" /></symbol><symbol class="icon" viewBox="0 0 1024 1024" id="ES6">
 <defs>
  <style type="text/css">@font-face { font-weight: 400; font-style: normal; font-family: Inter-Loom; src: url("https://cdn.useloom.com/assets/fonts/inter/Inter-UI-Regular.woff2") format("woff2"); }
@font-face { font-weight: 400; font-style: italic; font-family: Inter-Loom; src: url("https://cdn.useloom.com/assets/fonts/inter/Inter-UI-Italic.woff2") format("woff2"); }
@font-face { font-weight: 500; font-style: normal; font-family: Inter-Loom; src: url("https://cdn.useloom.com/assets/fonts/inter/Inter-UI-Medium.woff2") format("woff2"); }
@font-face { font-weight: 500; font-style: italic; font-family: Inter-Loom; src: url("https://cdn.useloom.com/assets/fonts/inter/Inter-UI-MediumItalic.woff2") format("woff2"); }
@font-face { font-weight: 700; font-style: normal; font-family: Inter-Loom; src: url("https://cdn.useloom.com/assets/fonts/inter/Inter-UI-Bold.woff2") format("woff2"); }
@font-face { font-weight: 700; font-style: italic; font-family: Inter-Loom; src: url("https://cdn.useloom.com/assets/fonts/inter/Inter-UI-BoldItalic.woff2") format("woff2"); }
@font-face { font-weight: 900; font-style: normal; font-family: Inter-Loom; src: url("https://cdn.useloom.com/assets/fonts/inter/Inter-UI-Black.woff2") format("woff2"); }
@font-face { font-weight: 900; font-style: italic; font-family: Inter-Loom; src: url("https://cdn.useloom.com/assets/fonts/inter/Inter-UI-BlackItalic.woff2") format("woff2"); }</style>
 </defs>
 <g>
  <title>background</title>
  <rect fill="none" id="ES6_canvas_background" height="1026" width="1026" y="-1" x="-1" />
 </g>
 <g>
  <title>Layer 1</title>
  <path id="ES6_svg_1" d="m933.82656,411.19744l-49.87904,49.88928l-138.97728,-138.96704l49.88928,-49.88928c15.7184,-15.7184 39.35232,-17.664 52.6848,-4.34176l90.624,90.63424c13.32224,13.32224 11.37664,36.95616 -4.34176,52.67456zm-212.0192,-65.92512l138.97728,138.97728l-331.39712,331.39712c-1.52576,1.52576 -5.74464,5.7344 -11.66336,7.24992c-0.68608,0.32768 -1.3824,0.60416 -2.07872,0.82944l-172.9536,55.11168c-4.84352,1.536 -9.70752,0.55296 -12.86144,-2.6112c-3.16416,-3.16416 -4.1472,-8.02816 -2.63168,-12.86144l55.12192,-172.93312c0.23552,-0.7168 0.512,-1.41312 0.82944,-2.07872c1.51552,-5.92896 5.72416,-10.1376 7.26016,-11.66336l62.27968,-62.28992l-210.35008,0c-8.47872,0 -15.36,-6.87104 -15.36,-15.36s6.88128,-15.36 15.36,-15.36l241.07008,0l238.39744,-238.40768zm-235.17184,459.69408l-85.5552,-85.54496l-22.94784,72.04864l36.46464,36.46464l72.0384,-22.96832zm229.82656,-404.45952c-4.9152,-4.92544 -12.89216,-4.92544 -17.80736,0l-258.3552,258.34496c-4.9152,4.9152 -4.9152,12.89216 0,17.8176c4.9152,4.9152 12.9024,4.9152 17.8176,0l258.34496,-258.34496c4.92544,-4.92544 4.92544,-12.9024 0,-17.8176zm-15.60576,491.8272c0,9.23648 -7.50592,16.75264 -16.7424,16.75264l-304.8448,0l-27.53536,8.77568c-5.5296,1.76128 -11.2128,2.65216 -16.90624,2.65216c-12.11392,0 -23.37792,-4.15744 -32.59392,-11.42784l-158.24896,0c-9.23648,0 -16.76288,-7.50592 -16.76288,-16.75264l0,-703.44704c0,-9.23648 7.51616,-16.75264 16.76288,-16.75264l62.80192,0l0,26.5216c0,9.24672 7.49568,16.7424 16.75264,16.7424s16.75264,-7.49568 16.75264,-16.7424l0,-26.5216l96.29696,0l0,26.5216c0,9.24672 7.49568,16.7424 16.75264,16.7424s16.75264,-7.49568 16.75264,-16.7424l0,-26.5216l83.74272,0l0,26.5216c0,9.24672 7.49568,16.7424 16.75264,16.7424s16.75264,-7.49568 16.75264,-16.7424l0,-26.5216l92.11904,0l0,26.5216c0,9.24672 7.49568,16.7424 16.7424,16.7424c9.25696,0 16.76288,-7.49568 16.76288,-16.7424l0,-26.5216l71.17824,0c9.22624,0 16.7424,7.51616 16.7424,16.75264l0,116.00896l17.55136,-17.55136l32.69632,-32.69632l0,-65.76128c0,-36.93568 -30.0544,-66.99008 -66.99008,-66.99008l-71.17824,0l0,-40.47872c0,-9.24672 -7.49568,-16.75264 -16.76288,-16.75264c-9.23648,0 -16.7424,7.49568 -16.7424,16.75264l0,40.47872l-92.13952,0l0,-40.47872c0,-9.24672 -7.49568,-16.75264 -16.75264,-16.75264s-16.75264,7.49568 -16.75264,16.75264l0,40.47872l-83.74272,0l0,-40.47872c0,-9.24672 -7.49568,-16.75264 -16.75264,-16.75264s-16.75264,7.49568 -16.75264,16.75264l0,40.47872l-96.29696,0l0,-40.47872c0,-9.24672 -7.49568,-16.75264 -16.75264,-16.75264s-16.75264,7.49568 -16.75264,16.75264l0,40.47872l-62.80192,0c-36.93568,0 -67.00032,30.0544 -67.00032,66.99008l0,703.4368c0,36.93568 30.06464,66.99008 67.00032,66.99008l540.13952,0c36.93568,0 66.99008,-30.0544 66.99008,-66.99008l0,-243.87584l-50.24768,50.25792l0,193.62816l0.01024,0zm-130.83648,-569.77408l-327.68,0c-8.47872,0 -15.36,6.87104 -15.36,15.36s6.88128,15.36 15.36,15.36l327.68,0c8.47872,0 15.36,-6.87104 15.36,-15.36s-6.88128,-15.36 -15.36,-15.36zm0,123.84256l-327.68,0c-8.47872,0 -15.36,6.87104 -15.36,15.36s6.88128,15.36 15.36,15.36l327.68,0c8.47872,0 15.36,-6.87104 15.36,-15.36s-6.88128,-15.36 -15.36,-15.36z" />
  <text style="cursor: move;" stroke="#000" transform="matrix(8.929384361994234,0,0,8.682944173230725,-2543.0962135408745,-4087.4309859695136) " xml:space="preserve" text-anchor="start" font-family="Helvetica, Arial, sans-serif" font-size="24" id="ES6_svg_2" y="531.035644" x="308.059629" stroke-width="0" fill="#CC7C65">ES6</text>
 </g>
</symbol><symbol class="icon" viewBox="0 0 1024 1024" id="chrome"><defs><style type="text/css">@font-face { font-weight: 400; font-style: normal; font-family: Inter-Loom; src: url("https://cdn.useloom.com/assets/fonts/inter/Inter-UI-Regular.woff2") format("woff2"); }
@font-face { font-weight: 400; font-style: italic; font-family: Inter-Loom; src: url("https://cdn.useloom.com/assets/fonts/inter/Inter-UI-Italic.woff2") format("woff2"); }
@font-face { font-weight: 500; font-style: normal; font-family: Inter-Loom; src: url("https://cdn.useloom.com/assets/fonts/inter/Inter-UI-Medium.woff2") format("woff2"); }
@font-face { font-weight: 500; font-style: italic; font-family: Inter-Loom; src: url("https://cdn.useloom.com/assets/fonts/inter/Inter-UI-MediumItalic.woff2") format("woff2"); }
@font-face { font-weight: 700; font-style: normal; font-family: Inter-Loom; src: url("https://cdn.useloom.com/assets/fonts/inter/Inter-UI-Bold.woff2") format("woff2"); }
@font-face { font-weight: 700; font-style: italic; font-family: Inter-Loom; src: url("https://cdn.useloom.com/assets/fonts/inter/Inter-UI-BoldItalic.woff2") format("woff2"); }
@font-face { font-weight: 900; font-style: normal; font-family: Inter-Loom; src: url("https://cdn.useloom.com/assets/fonts/inter/Inter-UI-Black.woff2") format("woff2"); }
@font-face { font-weight: 900; font-style: italic; font-family: Inter-Loom; src: url("https://cdn.useloom.com/assets/fonts/inter/Inter-UI-BlackItalic.woff2") format("woff2"); }
</style></defs><path d="M515.436 312.315H914.285C840.842 165.045 688.748 63.868 513 63.868c-141.284 0-267.274 65.395-349.42 167.546l151.66 262.682c8.535-102.325 95.704-181.781 200.196-181.781z" p-id="1690" /><path d="M514.218 345.197c-91.476 0-165.631 74.155-165.631 165.631s74.155 165.631 165.631 165.631c52.7 0 99.615-24.642 129.95-62.999l1.428-2.474 0.355 0.205c21.252-27.852 33.898-62.624 33.898-100.363 0-84.774-63.702-154.626-145.841-164.413l-6.393-0.632c-4.424-0.354-8.882-0.586-13.397-0.586z" p-id="1691" /><path d="M929.561 346.415H627.443c52.209 36.066 86.506 96.297 86.506 164.413 0 45.547-18.268 81.598-41.12 121.192L483.898 959.257c9.624 0.617 19.322 0.966 29.102 0.966 247.521 0 448.177-200.656 448.177-448.177 0-58.508-11.225-114.391-31.616-165.631z" p-id="1692" /><path d="M514.218 710.559c-83.583 0-144.927-54.804-185.034-124.651l-0.235 0.136-187.482-324.727C93.081 332.876 64.823 419.16 64.823 512.046c0 225.02 165.839 411.288 381.958 443.298l152.278-263.752c-25.769 12.143-54.518 18.967-84.841 18.967z" p-id="1693" /></symbol><symbol class="icon" viewBox="0 0 1024 1024" id="vue"><defs><style type="text/css">@font-face { font-weight: 400; font-style: normal; font-family: Inter-Loom; src: url("https://cdn.useloom.com/assets/fonts/inter/Inter-UI-Regular.woff2") format("woff2"); }
@font-face { font-weight: 400; font-style: italic; font-family: Inter-Loom; src: url("https://cdn.useloom.com/assets/fonts/inter/Inter-UI-Italic.woff2") format("woff2"); }
@font-face { font-weight: 500; font-style: normal; font-family: Inter-Loom; src: url("https://cdn.useloom.com/assets/fonts/inter/Inter-UI-Medium.woff2") format("woff2"); }
@font-face { font-weight: 500; font-style: italic; font-family: Inter-Loom; src: url("https://cdn.useloom.com/assets/fonts/inter/Inter-UI-MediumItalic.woff2") format("woff2"); }
@font-face { font-weight: 700; font-style: normal; font-family: Inter-Loom; src: url("https://cdn.useloom.com/assets/fonts/inter/Inter-UI-Bold.woff2") format("woff2"); }
@font-face { font-weight: 700; font-style: italic; font-family: Inter-Loom; src: url("https://cdn.useloom.com/assets/fonts/inter/Inter-UI-BoldItalic.woff2") format("woff2"); }
@font-face { font-weight: 900; font-style: normal; font-family: Inter-Loom; src: url("https://cdn.useloom.com/assets/fonts/inter/Inter-UI-Black.woff2") format("woff2"); }
@font-face { font-weight: 900; font-style: italic; font-family: Inter-Loom; src: url("https://cdn.useloom.com/assets/fonts/inter/Inter-UI-BlackItalic.woff2") format("woff2"); }
</style></defs><path d="M777.8 128.6H624l-112 177.2-96-177.2H64L512 896 960 128.6h-182.2z m-602.4 64h107.6L512 589 740.8 192.6h107.6L512 769 175.4 192.6z" fill="" p-id="3253" /></symbol></defs><use id="API-usage" xlink:href="#API" class="sprite-symbol-usage" /><use id="CSS-usage" xlink:href="#CSS" class="sprite-symbol-usage" /><use id="ES6-usage" xlink:href="#ES6" class="sprite-symbol-usage" /><use id="chrome-usage" xlink:href="#chrome" class="sprite-symbol-usage" /><use id="vue-usage" xlink:href="#vue" class="sprite-symbol-usage" /></svg>