<svg xmlns="http://www.w3.org/2000/svg" xmlns:xlink="http://www.w3.org/1999/xlink"><defs><style>
    .sprite-symbol-usage {display: none;}
    .sprite-symbol-usage:target {display: inline;}
  </style><symbol class="icon" viewBox="0 0 1024 1024" id="CSS"><defs><style type="text/css">@font-face { font-weight: 400; font-style: normal; font-family: Inter-Loom; src: url("https://cdn.useloom.com/assets/fonts/inter/Inter-UI-Regular.woff2") format("woff2"); }
@font-face { font-weight: 400; font-style: italic; font-family: Inter-Loom; src: url("https://cdn.useloom.com/assets/fonts/inter/Inter-UI-Italic.woff2") format("woff2"); }
@font-face { font-weight: 500; font-style: normal; font-family: Inter-Loom; src: url("https://cdn.useloom.com/assets/fonts/inter/Inter-UI-Medium.woff2") format("woff2"); }
@font-face { font-weight: 500; font-style: italic; font-family: Inter-Loom; src: url("https://cdn.useloom.com/assets/fonts/inter/Inter-UI-MediumItalic.woff2") format("woff2"); }
@font-face { font-weight: 700; font-style: normal; font-family: Inter-Loom; src: url("https://cdn.useloom.com/assets/fonts/inter/Inter-UI-Bold.woff2") format("woff2"); }
@font-face { font-weight: 700; font-style: italic; font-family: Inter-Loom; src: url("https://cdn.useloom.com/assets/fonts/inter/Inter-UI-BoldItalic.woff2") format("woff2"); }
@font-face { font-weight: 900; font-style: normal; font-family: Inter-Loom; src: url("https://cdn.useloom.com/assets/fonts/inter/Inter-UI-Black.woff2") format("woff2"); }
@font-face { font-weight: 900; font-style: italic; font-family: Inter-Loom; src: url("https://cdn.useloom.com/assets/fonts/inter/Inter-UI-BlackItalic.woff2") format("woff2"); }
</style></defs><path d="M354.40128 0c-87.04 0-157.44 70.55872-157.44 157.59872v275.68128H78.72c-21.6576 0-39.36256 17.69984-39.36256 39.36256v236.31872c0 21.6576 17.69984 39.35744 39.36256 39.35744h118.24128v118.08256c0 87.04 70.4 157.59872 157.44 157.59872h472.63744c87.04 0 157.59872-70.55872 157.59872-157.59872V315.0336c0-41.74848-38.9888-81.93024-107.52-149.27872l-29.11744-29.12256L818.87744 107.52C751.5392 38.9888 711.39328 0 669.59872 0H354.4064z m0 78.72h287.20128c28.35456 7.0912 27.99616 42.1376 27.99616 76.8v120.16128c0 21.6576 17.69984 39.35744 39.36256 39.35744h118.07744c39.38816 0 78.87872-0.0256 78.87872 39.36256v512c0 43.32032-35.55328 78.87872-78.87872 78.87872H354.4064c-43.32544 0-78.72-35.5584-78.72-78.87872v-118.08256h393.91744c21.66272 0 39.36256-17.69472 39.36256-39.35744V472.64256c0-21.66272-17.69984-39.36256-39.36256-39.36256H275.68128V157.59872c0-43.32032 35.39456-78.87872 78.72-78.87872zM246.55872 505.44128c17.92 0 33.28 3.2 46.08 9.6l-9.6 19.2c-12.16-6.4-24.32-9.6-36.48-9.6-16.64 0-30.39744 6.4-41.27744 19.2-10.24 12.16-15.36 29.44-15.36 51.84 0 23.04 4.79744 40.63744 14.39744 52.79744 9.6 11.52 23.68 17.28 42.24 17.28 10.24 0 23.36256-2.23744 39.36256-6.71744v19.2c-11.52 4.48-25.92256 6.71744-43.20256 6.71744-23.68 0-42.24-7.35744-55.68-22.07744-13.44-15.36-20.15744-38.08256-20.15744-68.16256 0-28.16 7.04-49.92 21.12-65.28 14.72-16 34.23744-23.99744 58.55744-23.99744z m120.00256 0c17.28 0 32.64 3.2 46.08 9.6l-7.68 18.23744c-13.44-5.76-26.24-8.63744-38.4-8.63744-10.24 0-17.92 2.23744-23.04 6.71744s-7.68 10.56256-7.68 18.24256c0 8.96 1.92 15.67744 5.76 20.15744 4.48 3.84 15.03744 9.6 31.67744 17.28 17.28 7.04 28.48256 14.40256 33.60256 22.08256 5.76 7.04 8.63744 16 8.63744 26.88 0 14.72-5.12 26.55744-15.36 35.51744s-24.96 13.44-44.16 13.44c-18.56 0-33.28-2.56-44.16-7.68v-21.12c15.36 6.4 30.08 9.6 44.16 9.6 12.8 0 22.08256-2.23744 27.84256-6.71744 6.4-4.48 9.6-11.52 9.6-21.12 0-7.68-2.24256-14.08-6.72256-19.2-3.2-3.2-15.03744-9.28256-35.51744-18.24256-13.44-6.4-23.04-13.44-28.8-21.12s-8.64256-17.59744-8.64256-29.75744c0-13.44 4.48-24.00256 13.44-31.68256 9.6-8.32 22.72256-12.47744 39.36256-12.47744z m127.67744 0c17.28 0 32.64 3.2 46.08 9.6l-7.68 18.23744c-13.44-5.76-26.24-8.63744-38.4-8.63744-10.24 0-17.92 2.23744-23.04 6.71744s-7.68 10.56256-7.68 18.24256c0 8.96 1.92 15.67744 5.76 20.15744 4.48 3.84 15.04256 9.6 31.68256 17.28 17.28 7.04 28.47744 14.40256 33.59744 22.08256 5.76 7.04 8.64256 16 8.64256 26.88 0 14.72-5.12 26.55744-15.36 35.51744s-24.96 13.44-44.16 13.44c-18.56 0-33.28-2.56-44.16-7.68v-21.12c15.36 6.4 30.08 9.6 44.16 9.6 12.8 0 22.07744-2.23744 27.83744-6.71744 6.4-4.48 9.6-11.52 9.6-21.12 0-7.68-2.23744-14.08-6.71744-19.2-3.2-3.2-15.04256-9.28256-35.52256-18.24256-13.44-6.4-23.04-13.44-28.8-21.12s-8.63744-17.59744-8.63744-29.75744c0-13.44 4.48-24.00256 13.44-31.68256 9.6-8.32 22.71744-12.47744 39.35744-12.47744z" p-id="4182" /></symbol><symbol class="icon" viewBox="0 0 1024 1024" id="ES6">
 <defs>
  <style type="text/css">@font-face { font-weight: 400; font-style: normal; font-family: Inter-Loom; src: url("https://cdn.useloom.com/assets/fonts/inter/Inter-UI-Regular.woff2") format("woff2"); }
@font-face { font-weight: 400; font-style: italic; font-family: Inter-Loom; src: url("https://cdn.useloom.com/assets/fonts/inter/Inter-UI-Italic.woff2") format("woff2"); }
@font-face { font-weight: 500; font-style: normal; font-family: Inter-Loom; src: url("https://cdn.useloom.com/assets/fonts/inter/Inter-UI-Medium.woff2") format("woff2"); }
@font-face { font-weight: 500; font-style: italic; font-family: Inter-Loom; src: url("https://cdn.useloom.com/assets/fonts/inter/Inter-UI-MediumItalic.woff2") format("woff2"); }
@font-face { font-weight: 700; font-style: normal; font-family: Inter-Loom; src: url("https://cdn.useloom.com/assets/fonts/inter/Inter-UI-Bold.woff2") format("woff2"); }
@font-face { font-weight: 700; font-style: italic; font-family: Inter-Loom; src: url("https://cdn.useloom.com/assets/fonts/inter/Inter-UI-BoldItalic.woff2") format("woff2"); }
@font-face { font-weight: 900; font-style: normal; font-family: Inter-Loom; src: url("https://cdn.useloom.com/assets/fonts/inter/Inter-UI-Black.woff2") format("woff2"); }
@font-face { font-weight: 900; font-style: italic; font-family: Inter-Loom; src: url("https://cdn.useloom.com/assets/fonts/inter/Inter-UI-BlackItalic.woff2") format("woff2"); }</style>
 </defs>
 <g>
  <title>background</title>
  <rect fill="none" id="ES6_canvas_background" height="402" width="582" y="-1" x="-1" />
 </g>
 <g>
  <title>Layer 1</title>
  <path id="ES6_svg_1" d="m933.82656,411.19744l-49.87904,49.88928l-138.97728,-138.96704l49.88928,-49.88928c15.7184,-15.7184 39.35232,-17.664 52.6848,-4.34176l90.624,90.63424c13.32224,13.32224 11.37664,36.95616 -4.34176,52.67456zm-212.0192,-65.92512l138.97728,138.97728l-331.39712,331.39712c-1.52576,1.52576 -5.74464,5.7344 -11.66336,7.24992c-0.68608,0.32768 -1.3824,0.60416 -2.07872,0.82944l-172.9536,55.11168c-4.84352,1.536 -9.70752,0.55296 -12.86144,-2.6112c-3.16416,-3.16416 -4.1472,-8.02816 -2.63168,-12.86144l55.12192,-172.93312c0.23552,-0.7168 0.512,-1.41312 0.82944,-2.07872c1.51552,-5.92896 5.72416,-10.1376 7.26016,-11.66336l62.27968,-62.28992l-210.35008,0c-8.47872,0 -15.36,-6.87104 -15.36,-15.36s6.88128,-15.36 15.36,-15.36l241.07008,0l238.39744,-238.40768zm-235.17184,459.69408l-85.5552,-85.54496l-22.94784,72.04864l36.46464,36.46464l72.0384,-22.96832zm229.82656,-404.45952c-4.9152,-4.92544 -12.89216,-4.92544 -17.80736,0l-258.3552,258.34496c-4.9152,4.9152 -4.9152,12.89216 0,17.8176c4.9152,4.9152 12.9024,4.9152 17.8176,0l258.34496,-258.34496c4.92544,-4.92544 4.92544,-12.9024 0,-17.8176zm-15.60576,491.8272c0,9.23648 -7.50592,16.75264 -16.7424,16.75264l-304.8448,0l-27.53536,8.77568c-5.5296,1.76128 -11.2128,2.65216 -16.90624,2.65216c-12.11392,0 -23.37792,-4.15744 -32.59392,-11.42784l-158.24896,0c-9.23648,0 -16.76288,-7.50592 -16.76288,-16.75264l0,-703.44704c0,-9.23648 7.51616,-16.75264 16.76288,-16.75264l62.80192,0l0,26.5216c0,9.24672 7.49568,16.7424 16.75264,16.7424s16.75264,-7.49568 16.75264,-16.7424l0,-26.5216l96.29696,0l0,26.5216c0,9.24672 7.49568,16.7424 16.75264,16.7424s16.75264,-7.49568 16.75264,-16.7424l0,-26.5216l83.74272,0l0,26.5216c0,9.24672 7.49568,16.7424 16.75264,16.7424s16.75264,-7.49568 16.75264,-16.7424l0,-26.5216l92.11904,0l0,26.5216c0,9.24672 7.49568,16.7424 16.7424,16.7424c9.25696,0 16.76288,-7.49568 16.76288,-16.7424l0,-26.5216l71.17824,0c9.22624,0 16.7424,7.51616 16.7424,16.75264l0,116.00896l17.55136,-17.55136l32.69632,-32.69632l0,-65.76128c0,-36.93568 -30.0544,-66.99008 -66.99008,-66.99008l-71.17824,0l0,-40.47872c0,-9.24672 -7.49568,-16.75264 -16.76288,-16.75264c-9.23648,0 -16.7424,7.49568 -16.7424,16.75264l0,40.47872l-92.13952,0l0,-40.47872c0,-9.24672 -7.49568,-16.75264 -16.75264,-16.75264s-16.75264,7.49568 -16.75264,16.75264l0,40.47872l-83.74272,0l0,-40.47872c0,-9.24672 -7.49568,-16.75264 -16.75264,-16.75264s-16.75264,7.49568 -16.75264,16.75264l0,40.47872l-96.29696,0l0,-40.47872c0,-9.24672 -7.49568,-16.75264 -16.75264,-16.75264s-16.75264,7.49568 -16.75264,16.75264l0,40.47872l-62.80192,0c-36.93568,0 -67.00032,30.0544 -67.00032,66.99008l0,703.4368c0,36.93568 30.06464,66.99008 67.00032,66.99008l540.13952,0c36.93568,0 66.99008,-30.0544 66.99008,-66.99008l0,-243.87584l-50.24768,50.25792l0,193.62816l0.01024,0zm-130.83648,-569.77408l-327.68,0c-8.47872,0 -15.36,6.87104 -15.36,15.36s6.88128,15.36 15.36,15.36l327.68,0c8.47872,0 15.36,-6.87104 15.36,-15.36s-6.88128,-15.36 -15.36,-15.36zm0,123.84256l-327.68,0c-8.47872,0 -15.36,6.87104 -15.36,15.36s6.88128,15.36 15.36,15.36l327.68,0c8.47872,0 15.36,-6.87104 15.36,-15.36s-6.88128,-15.36 -15.36,-15.36z" />
  <text stroke="#000" transform="matrix(2.9485193543952732,0,0,3.109088960449128,-604.2070652600617,-1094.3725593168647) " xml:space="preserve" text-anchor="start" font-family="Helvetica, Arial, sans-serif" font-size="24" id="ES6_svg_2" y="531" x="310.5" stroke-width="0" fill="#000000">ES6</text>
 </g>
</symbol><symbol class="icon" viewBox="0 0 1024 1024" id="vue"><defs><style type="text/css">@font-face { font-weight: 400; font-style: normal; font-family: Inter-Loom; src: url("https://cdn.useloom.com/assets/fonts/inter/Inter-UI-Regular.woff2") format("woff2"); }
@font-face { font-weight: 400; font-style: italic; font-family: Inter-Loom; src: url("https://cdn.useloom.com/assets/fonts/inter/Inter-UI-Italic.woff2") format("woff2"); }
@font-face { font-weight: 500; font-style: normal; font-family: Inter-Loom; src: url("https://cdn.useloom.com/assets/fonts/inter/Inter-UI-Medium.woff2") format("woff2"); }
@font-face { font-weight: 500; font-style: italic; font-family: Inter-Loom; src: url("https://cdn.useloom.com/assets/fonts/inter/Inter-UI-MediumItalic.woff2") format("woff2"); }
@font-face { font-weight: 700; font-style: normal; font-family: Inter-Loom; src: url("https://cdn.useloom.com/assets/fonts/inter/Inter-UI-Bold.woff2") format("woff2"); }
@font-face { font-weight: 700; font-style: italic; font-family: Inter-Loom; src: url("https://cdn.useloom.com/assets/fonts/inter/Inter-UI-BoldItalic.woff2") format("woff2"); }
@font-face { font-weight: 900; font-style: normal; font-family: Inter-Loom; src: url("https://cdn.useloom.com/assets/fonts/inter/Inter-UI-Black.woff2") format("woff2"); }
@font-face { font-weight: 900; font-style: italic; font-family: Inter-Loom; src: url("https://cdn.useloom.com/assets/fonts/inter/Inter-UI-BlackItalic.woff2") format("woff2"); }
</style></defs><path d="M777.8 128.6H624l-112 177.2-96-177.2H64L512 896 960 128.6h-182.2z m-602.4 64h107.6L512 589 740.8 192.6h107.6L512 769 175.4 192.6z" fill="" p-id="3253" /></symbol></defs><use id="CSS-usage" xlink:href="#CSS" class="sprite-symbol-usage" /><use id="ES6-usage" xlink:href="#ES6" class="sprite-symbol-usage" /><use id="vue-usage" xlink:href="#vue" class="sprite-symbol-usage" /></svg>