<svg xmlns="http://www.w3.org/2000/svg" xmlns:xlink="http://www.w3.org/1999/xlink"><defs><style>
    .sprite-symbol-usage {display: none;}
    .sprite-symbol-usage:target {display: inline;}
  </style><symbol class="icon" viewBox="0 0 1246 1024" id="API"><defs><style type="text/css">@font-face { font-weight: 400; font-style: normal; font-family: Inter-Loom; src: url("https://cdn.useloom.com/assets/fonts/inter/Inter-UI-Regular.woff2") format("woff2"); }
@font-face { font-weight: 400; font-style: italic; font-family: Inter-Loom; src: url("https://cdn.useloom.com/assets/fonts/inter/Inter-UI-Italic.woff2") format("woff2"); }
@font-face { font-weight: 500; font-style: normal; font-family: Inter-Loom; src: url("https://cdn.useloom.com/assets/fonts/inter/Inter-UI-Medium.woff2") format("woff2"); }
@font-face { font-weight: 500; font-style: italic; font-family: Inter-Loom; src: url("https://cdn.useloom.com/assets/fonts/inter/Inter-UI-MediumItalic.woff2") format("woff2"); }
@font-face { font-weight: 700; font-style: normal; font-family: Inter-Loom; src: url("https://cdn.useloom.com/assets/fonts/inter/Inter-UI-Bold.woff2") format("woff2"); }
@font-face { font-weight: 700; font-style: italic; font-family: Inter-Loom; src: url("https://cdn.useloom.com/assets/fonts/inter/Inter-UI-BoldItalic.woff2") format("woff2"); }
@font-face { font-weight: 900; font-style: normal; font-family: Inter-Loom; src: url("https://cdn.useloom.com/assets/fonts/inter/Inter-UI-Black.woff2") format("woff2"); }
@font-face { font-weight: 900; font-style: italic; font-family: Inter-Loom; src: url("https://cdn.useloom.com/assets/fonts/inter/Inter-UI-BlackItalic.woff2") format("woff2"); }
</style></defs><path d="M303.339977 664.942675l106.011591-276.040855h39.350086l112.971638 276.040855h-41.612716l-32.193289-83.618933h-115.431018l-30.311864 83.618933h-38.784428z m79.647033-113.352842h93.579424l-28.811641-76.44984q-13.182279-34.775639-19.576668-57.242078a351.974224 351.974224 0 0 1-14.879251 52.716819zM590.853841 664.942675V388.90182h104.130165q27.483576 0 41.99392 2.631537 20.339076 3.393945 34.074715 12.89945t22.134424 26.647387a84.578091 84.578091 0 0 1 8.37419 37.653114q0 35.20603-22.404955 59.590786t-80.962803 24.384757H627.387936v112.221527h-36.534095z m36.534095-144.796021h71.322031q35.402781 0 50.269735-13.182278t14.916142-37.087457q0-17.314038-8.755394-29.660127a40.936387 40.936387 0 0 0-23.068988-16.281098q-9.222676-2.45938-34.087012-2.459381H627.387936v98.670341zM854.278074 664.942675V388.90182h36.534095v276.040855h-36.534095z" fill="#231815" p-id="2495" /><path d="M914.938691 915.270707H623.108614a32.857322 32.857322 0 0 1 0-65.702347h291.830077c146.443805 0 265.613082-119.144683 265.613081-265.613081 0-133.728808-99.912328-247.020166-232.411446-263.522609l-23.364114-2.914365-4.734307-23.081285c-27.213044-132.560603-145.361678-228.722376-280.922724-228.722376-158.138159 0-286.788347 128.650188-286.788347 286.788347 0 3.209491 0.073781 6.62803 0.221344 10.772086l1.340362 37.739192-37.616223-3.910415a230.751365 230.751365 0 0 0-23.745317-1.22969c-125.071789 0-226.828653 101.756863-226.828653 226.828653s101.756863 226.828653 226.828653 226.828652h79.032189a32.857322 32.857322 0 0 1 0 65.702347h-79.032189C131.232537 915.270707 0.049188 784.03817 0.049188 622.739707c0-159.540006 128.379656-289.653525 287.255629-292.481812A352.515287 352.515287 0 0 1 863.205624 80.434035a353.941728 353.941728 0 0 1 115.775332 178.464938c153.858837 30.12741 267.223976 166.008176 267.223976 325.080899a331.290835 331.290835 0 0 1-331.266241 331.290835z" fill="#231815" p-id="2496" /><path d="M698.033638 1023.999914a32.734353 32.734353 0 0 1-22.195908-8.607831L532.505041 883.913607l135.684016-141.315997a32.857322 32.857322 0 0 1 47.39226 45.498537l-89.115648 92.829313 93.776174 86.016829a32.857322 32.857322 0 0 1-22.208205 57.057625z" fill="#231815" p-id="2497" /></symbol><symbol class="icon" viewBox="0 0 1024 1024" id="CSS"><defs><style type="text/css">@font-face { font-weight: 400; font-style: normal; font-family: Inter-Loom; src: url("https://cdn.useloom.com/assets/fonts/inter/Inter-UI-Regular.woff2") format("woff2"); }
@font-face { font-weight: 400; font-style: italic; font-family: Inter-Loom; src: url("https://cdn.useloom.com/assets/fonts/inter/Inter-UI-Italic.woff2") format("woff2"); }
@font-face { font-weight: 500; font-style: normal; font-family: Inter-Loom; src: url("https://cdn.useloom.com/assets/fonts/inter/Inter-UI-Medium.woff2") format("woff2"); }
@font-face { font-weight: 500; font-style: italic; font-family: Inter-Loom; src: url("https://cdn.useloom.com/assets/fonts/inter/Inter-UI-MediumItalic.woff2") format("woff2"); }
@font-face { font-weight: 700; font-style: normal; font-family: Inter-Loom; src: url("https://cdn.useloom.com/assets/fonts/inter/Inter-UI-Bold.woff2") format("woff2"); }
@font-face { font-weight: 700; font-style: italic; font-family: Inter-Loom; src: url("https://cdn.useloom.com/assets/fonts/inter/Inter-UI-BoldItalic.woff2") format("woff2"); }
@font-face { font-weight: 900; font-style: normal; font-family: Inter-Loom; src: url("https://cdn.useloom.com/assets/fonts/inter/Inter-UI-Black.woff2") format("woff2"); }
@font-face { font-weight: 900; font-style: italic; font-family: Inter-Loom; src: url("https://cdn.useloom.com/assets/fonts/inter/Inter-UI-BlackItalic.woff2") format("woff2"); }
</style></defs><path d="M354.40128 0c-87.04 0-157.44 70.55872-157.44 157.59872v275.68128H78.72c-21.6576 0-39.36256 17.69984-39.36256 39.36256v236.31872c0 21.6576 17.69984 39.35744 39.36256 39.35744h118.24128v118.08256c0 87.04 70.4 157.59872 157.44 157.59872h472.63744c87.04 0 157.59872-70.55872 157.59872-157.59872V315.0336c0-41.74848-38.9888-81.93024-107.52-149.27872l-29.11744-29.12256L818.87744 107.52C751.5392 38.9888 711.39328 0 669.59872 0H354.4064z m0 78.72h287.20128c28.35456 7.0912 27.99616 42.1376 27.99616 76.8v120.16128c0 21.6576 17.69984 39.35744 39.36256 39.35744h118.07744c39.38816 0 78.87872-0.0256 78.87872 39.36256v512c0 43.32032-35.55328 78.87872-78.87872 78.87872H354.4064c-43.32544 0-78.72-35.5584-78.72-78.87872v-118.08256h393.91744c21.66272 0 39.36256-17.69472 39.36256-39.35744V472.64256c0-21.66272-17.69984-39.36256-39.36256-39.36256H275.68128V157.59872c0-43.32032 35.39456-78.87872 78.72-78.87872zM246.55872 505.44128c17.92 0 33.28 3.2 46.08 9.6l-9.6 19.2c-12.16-6.4-24.32-9.6-36.48-9.6-16.64 0-30.39744 6.4-41.27744 19.2-10.24 12.16-15.36 29.44-15.36 51.84 0 23.04 4.79744 40.63744 14.39744 52.79744 9.6 11.52 23.68 17.28 42.24 17.28 10.24 0 23.36256-2.23744 39.36256-6.71744v19.2c-11.52 4.48-25.92256 6.71744-43.20256 6.71744-23.68 0-42.24-7.35744-55.68-22.07744-13.44-15.36-20.15744-38.08256-20.15744-68.16256 0-28.16 7.04-49.92 21.12-65.28 14.72-16 34.23744-23.99744 58.55744-23.99744z m120.00256 0c17.28 0 32.64 3.2 46.08 9.6l-7.68 18.23744c-13.44-5.76-26.24-8.63744-38.4-8.63744-10.24 0-17.92 2.23744-23.04 6.71744s-7.68 10.56256-7.68 18.24256c0 8.96 1.92 15.67744 5.76 20.15744 4.48 3.84 15.03744 9.6 31.67744 17.28 17.28 7.04 28.48256 14.40256 33.60256 22.08256 5.76 7.04 8.63744 16 8.63744 26.88 0 14.72-5.12 26.55744-15.36 35.51744s-24.96 13.44-44.16 13.44c-18.56 0-33.28-2.56-44.16-7.68v-21.12c15.36 6.4 30.08 9.6 44.16 9.6 12.8 0 22.08256-2.23744 27.84256-6.71744 6.4-4.48 9.6-11.52 9.6-21.12 0-7.68-2.24256-14.08-6.72256-19.2-3.2-3.2-15.03744-9.28256-35.51744-18.24256-13.44-6.4-23.04-13.44-28.8-21.12s-8.64256-17.59744-8.64256-29.75744c0-13.44 4.48-24.00256 13.44-31.68256 9.6-8.32 22.72256-12.47744 39.36256-12.47744z m127.67744 0c17.28 0 32.64 3.2 46.08 9.6l-7.68 18.23744c-13.44-5.76-26.24-8.63744-38.4-8.63744-10.24 0-17.92 2.23744-23.04 6.71744s-7.68 10.56256-7.68 18.24256c0 8.96 1.92 15.67744 5.76 20.15744 4.48 3.84 15.04256 9.6 31.68256 17.28 17.28 7.04 28.47744 14.40256 33.59744 22.08256 5.76 7.04 8.64256 16 8.64256 26.88 0 14.72-5.12 26.55744-15.36 35.51744s-24.96 13.44-44.16 13.44c-18.56 0-33.28-2.56-44.16-7.68v-21.12c15.36 6.4 30.08 9.6 44.16 9.6 12.8 0 22.07744-2.23744 27.83744-6.71744 6.4-4.48 9.6-11.52 9.6-21.12 0-7.68-2.23744-14.08-6.71744-19.2-3.2-3.2-15.04256-9.28256-35.52256-18.24256-13.44-6.4-23.04-13.44-28.8-21.12s-8.63744-17.59744-8.63744-29.75744c0-13.44 4.48-24.00256 13.44-31.68256 9.6-8.32 22.71744-12.47744 39.35744-12.47744z" p-id="4182" /></symbol><symbol class="icon" viewBox="0 0 1024 1024" id="ES6">
 <defs>
  <style type="text/css">@font-face { font-weight: 400; font-style: normal; font-family: Inter-Loom; src: url("https://cdn.useloom.com/assets/fonts/inter/Inter-UI-Regular.woff2") format("woff2"); }
@font-face { font-weight: 400; font-style: italic; font-family: Inter-Loom; src: url("https://cdn.useloom.com/assets/fonts/inter/Inter-UI-Italic.woff2") format("woff2"); }
@font-face { font-weight: 500; font-style: normal; font-family: Inter-Loom; src: url("https://cdn.useloom.com/assets/fonts/inter/Inter-UI-Medium.woff2") format("woff2"); }
@font-face { font-weight: 500; font-style: italic; font-family: Inter-Loom; src: url("https://cdn.useloom.com/assets/fonts/inter/Inter-UI-MediumItalic.woff2") format("woff2"); }
@font-face { font-weight: 700; font-style: normal; font-family: Inter-Loom; src: url("https://cdn.useloom.com/assets/fonts/inter/Inter-UI-Bold.woff2") format("woff2"); }
@font-face { font-weight: 700; font-style: italic; font-family: Inter-Loom; src: url("https://cdn.useloom.com/assets/fonts/inter/Inter-UI-BoldItalic.woff2") format("woff2"); }
@font-face { font-weight: 900; font-style: normal; font-family: Inter-Loom; src: url("https://cdn.useloom.com/assets/fonts/inter/Inter-UI-Black.woff2") format("woff2"); }
@font-face { font-weight: 900; font-style: italic; font-family: Inter-Loom; src: url("https://cdn.useloom.com/assets/fonts/inter/Inter-UI-BlackItalic.woff2") format("woff2"); }</style>
 </defs>
 <g>
  <title>background</title>
  <rect fill="none" id="ES6_canvas_background" height="1026" width="1026" y="-1" x="-1" />
 </g>
 <g>
  <title>Layer 1</title>
  <path id="ES6_svg_1" d="m933.82656,411.19744l-49.87904,49.88928l-138.97728,-138.96704l49.88928,-49.88928c15.7184,-15.7184 39.35232,-17.664 52.6848,-4.34176l90.624,90.63424c13.32224,13.32224 11.37664,36.95616 -4.34176,52.67456zm-212.0192,-65.92512l138.97728,138.97728l-331.39712,331.39712c-1.52576,1.52576 -5.74464,5.7344 -11.66336,7.24992c-0.68608,0.32768 -1.3824,0.60416 -2.07872,0.82944l-172.9536,55.11168c-4.84352,1.536 -9.70752,0.55296 -12.86144,-2.6112c-3.16416,-3.16416 -4.1472,-8.02816 -2.63168,-12.86144l55.12192,-172.93312c0.23552,-0.7168 0.512,-1.41312 0.82944,-2.07872c1.51552,-5.92896 5.72416,-10.1376 7.26016,-11.66336l62.27968,-62.28992l-210.35008,0c-8.47872,0 -15.36,-6.87104 -15.36,-15.36s6.88128,-15.36 15.36,-15.36l241.07008,0l238.39744,-238.40768zm-235.17184,459.69408l-85.5552,-85.54496l-22.94784,72.04864l36.46464,36.46464l72.0384,-22.96832zm229.82656,-404.45952c-4.9152,-4.92544 -12.89216,-4.92544 -17.80736,0l-258.3552,258.34496c-4.9152,4.9152 -4.9152,12.89216 0,17.8176c4.9152,4.9152 12.9024,4.9152 17.8176,0l258.34496,-258.34496c4.92544,-4.92544 4.92544,-12.9024 0,-17.8176zm-15.60576,491.8272c0,9.23648 -7.50592,16.75264 -16.7424,16.75264l-304.8448,0l-27.53536,8.77568c-5.5296,1.76128 -11.2128,2.65216 -16.90624,2.65216c-12.11392,0 -23.37792,-4.15744 -32.59392,-11.42784l-158.24896,0c-9.23648,0 -16.76288,-7.50592 -16.76288,-16.75264l0,-703.44704c0,-9.23648 7.51616,-16.75264 16.76288,-16.75264l62.80192,0l0,26.5216c0,9.24672 7.49568,16.7424 16.75264,16.7424s16.75264,-7.49568 16.75264,-16.7424l0,-26.5216l96.29696,0l0,26.5216c0,9.24672 7.49568,16.7424 16.75264,16.7424s16.75264,-7.49568 16.75264,-16.7424l0,-26.5216l83.74272,0l0,26.5216c0,9.24672 7.49568,16.7424 16.75264,16.7424s16.75264,-7.49568 16.75264,-16.7424l0,-26.5216l92.11904,0l0,26.5216c0,9.24672 7.49568,16.7424 16.7424,16.7424c9.25696,0 16.76288,-7.49568 16.76288,-16.7424l0,-26.5216l71.17824,0c9.22624,0 16.7424,7.51616 16.7424,16.75264l0,116.00896l17.55136,-17.55136l32.69632,-32.69632l0,-65.76128c0,-36.93568 -30.0544,-66.99008 -66.99008,-66.99008l-71.17824,0l0,-40.47872c0,-9.24672 -7.49568,-16.75264 -16.76288,-16.75264c-9.23648,0 -16.7424,7.49568 -16.7424,16.75264l0,40.47872l-92.13952,0l0,-40.47872c0,-9.24672 -7.49568,-16.75264 -16.75264,-16.75264s-16.75264,7.49568 -16.75264,16.75264l0,40.47872l-83.74272,0l0,-40.47872c0,-9.24672 -7.49568,-16.75264 -16.75264,-16.75264s-16.75264,7.49568 -16.75264,16.75264l0,40.47872l-96.29696,0l0,-40.47872c0,-9.24672 -7.49568,-16.75264 -16.75264,-16.75264s-16.75264,7.49568 -16.75264,16.75264l0,40.47872l-62.80192,0c-36.93568,0 -67.00032,30.0544 -67.00032,66.99008l0,703.4368c0,36.93568 30.06464,66.99008 67.00032,66.99008l540.13952,0c36.93568,0 66.99008,-30.0544 66.99008,-66.99008l0,-243.87584l-50.24768,50.25792l0,193.62816l0.01024,0zm-130.83648,-569.77408l-327.68,0c-8.47872,0 -15.36,6.87104 -15.36,15.36s6.88128,15.36 15.36,15.36l327.68,0c8.47872,0 15.36,-6.87104 15.36,-15.36s-6.88128,-15.36 -15.36,-15.36zm0,123.84256l-327.68,0c-8.47872,0 -15.36,6.87104 -15.36,15.36s6.88128,15.36 15.36,15.36l327.68,0c8.47872,0 15.36,-6.87104 15.36,-15.36s-6.88128,-15.36 -15.36,-15.36z" />
  <text style="cursor: move;" stroke="#000" transform="matrix(8.929384361994234,0,0,8.682944173230725,-2543.0962135408745,-4087.4309859695136) " xml:space="preserve" text-anchor="start" font-family="Helvetica, Arial, sans-serif" font-size="24" id="ES6_svg_2" y="531.035644" x="308.059629" stroke-width="0" fill="#CC7C65">ES6</text>
 </g>
</symbol><symbol class="icon" viewBox="0 0 1024 1024" id="Tools"><defs><style type="text/css">@font-face { font-weight: 400; font-style: normal; font-family: Inter-Loom; src: url("https://cdn.useloom.com/assets/fonts/inter/Inter-UI-Regular.woff2") format("woff2"); }
@font-face { font-weight: 400; font-style: italic; font-family: Inter-Loom; src: url("https://cdn.useloom.com/assets/fonts/inter/Inter-UI-Italic.woff2") format("woff2"); }
@font-face { font-weight: 500; font-style: normal; font-family: Inter-Loom; src: url("https://cdn.useloom.com/assets/fonts/inter/Inter-UI-Medium.woff2") format("woff2"); }
@font-face { font-weight: 500; font-style: italic; font-family: Inter-Loom; src: url("https://cdn.useloom.com/assets/fonts/inter/Inter-UI-MediumItalic.woff2") format("woff2"); }
@font-face { font-weight: 700; font-style: normal; font-family: Inter-Loom; src: url("https://cdn.useloom.com/assets/fonts/inter/Inter-UI-Bold.woff2") format("woff2"); }
@font-face { font-weight: 700; font-style: italic; font-family: Inter-Loom; src: url("https://cdn.useloom.com/assets/fonts/inter/Inter-UI-BoldItalic.woff2") format("woff2"); }
@font-face { font-weight: 900; font-style: normal; font-family: Inter-Loom; src: url("https://cdn.useloom.com/assets/fonts/inter/Inter-UI-Black.woff2") format("woff2"); }
@font-face { font-weight: 900; font-style: italic; font-family: Inter-Loom; src: url("https://cdn.useloom.com/assets/fonts/inter/Inter-UI-BlackItalic.woff2") format("woff2"); }
</style></defs><path d="M181.248 114.688h651.264c32.768 0 59.904 27.136 59.904 59.904v625.664c0 32.768-27.136 59.904-59.904 59.904H181.248c-33.28 0-59.904-27.136-59.904-59.904V174.592c-0.512-33.28 26.624-59.904 59.904-59.904z m601.6 764.416h-93.184v86.528H742.4l40.448-86.528z m-578.048 0h93.184v86.528H245.248L204.8 879.104zM403.968 272.896c-89.6 0-161.792 72.192-161.792 161.792s72.704 161.792 161.792 161.792c89.6 0 161.792-72.704 161.792-161.792 0-89.088-72.704-161.792-161.792-161.792z m356.864 91.136c-33.28-10.24-68.608 8.704-78.848 41.984-6.656 22.016-0.512 45.056 13.824 60.928l-80.896 195.072c25.088 25.088 58.88 35.84 101.888 30.72l40.96-207.36c20.992-5.12 38.4-20.992 45.056-43.008 10.24-32.768-8.704-68.096-41.984-78.336z m-351.744-3.072V305.152h-18.432v56.832c-13.312 2.56-25.6 8.192-35.328 16.896l-39.424-39.424-12.8 12.8 40.448 40.448c-7.68 10.752-12.288 23.552-13.312 36.864H274.432v18.432h56.832c2.56 13.312 8.192 25.6 16.896 35.328l-39.424 39.424 12.8 12.8 40.448-39.936c10.752 7.68 23.552 12.288 36.864 13.312v55.808h18.432V507.904c13.312-2.56 25.6-8.192 35.328-16.896l39.424 39.424 12.8-12.8-39.936-40.448c7.68-10.752 12.288-23.04 13.312-36.864h55.808v-18.432H476.672c-2.56-13.312-8.192-25.6-16.896-35.328l39.424-39.424-12.8-12.8-40.448 40.448c-10.24-8.192-23.04-12.8-36.864-13.824z" fill="#231815" p-id="4342" /></symbol><symbol class="icon" viewBox="0 0 1024 1024" id="bug"><defs><style type="text/css">@font-face { font-weight: 400; font-style: normal; font-family: Inter-Loom; src: url("https://cdn.useloom.com/assets/fonts/inter/Inter-UI-Regular.woff2") format("woff2"); }
@font-face { font-weight: 400; font-style: italic; font-family: Inter-Loom; src: url("https://cdn.useloom.com/assets/fonts/inter/Inter-UI-Italic.woff2") format("woff2"); }
@font-face { font-weight: 500; font-style: normal; font-family: Inter-Loom; src: url("https://cdn.useloom.com/assets/fonts/inter/Inter-UI-Medium.woff2") format("woff2"); }
@font-face { font-weight: 500; font-style: italic; font-family: Inter-Loom; src: url("https://cdn.useloom.com/assets/fonts/inter/Inter-UI-MediumItalic.woff2") format("woff2"); }
@font-face { font-weight: 700; font-style: normal; font-family: Inter-Loom; src: url("https://cdn.useloom.com/assets/fonts/inter/Inter-UI-Bold.woff2") format("woff2"); }
@font-face { font-weight: 700; font-style: italic; font-family: Inter-Loom; src: url("https://cdn.useloom.com/assets/fonts/inter/Inter-UI-BoldItalic.woff2") format("woff2"); }
@font-face { font-weight: 900; font-style: normal; font-family: Inter-Loom; src: url("https://cdn.useloom.com/assets/fonts/inter/Inter-UI-Black.woff2") format("woff2"); }
@font-face { font-weight: 900; font-style: italic; font-family: Inter-Loom; src: url("https://cdn.useloom.com/assets/fonts/inter/Inter-UI-BlackItalic.woff2") format("woff2"); }
</style></defs><path d="M749.28 254.654C690.73 177.024 606.124 128 512 128s-178.73 49.024-237.28 126.654c12.708 31.28 31.666 60 56.26 84.594 48.352 48.352 112.638 74.98 181.02 74.98s132.668-26.628 181.02-74.98C717.614 314.654 736.572 285.932 749.28 254.654z" p-id="1847" /><path d="M253.672 285.648c-3.45 5.654-6.792 11.406-9.984 17.288-5.852-3.68-10.638-7.48-15.49-11.546-2.342-1.962-5.908-7.898-9.092-14.7 10.82-22.628 2.362-50.074-19.828-62.522-23.122-12.968-52.376-4.744-65.348 18.378-12.97 23.12-4.742 52.376 18.374 65.346 2.502 1.404 5.078 2.544 7.694 3.458 5.632 12.538 14.64 28.662 27.096 39.094 8.368 7.014 17.584 14.234 30.408 21.348-14.39 40.518-23.152 84.606-25.09 130.854-22.052 0.414-37.238 4.2-50.948 8.244-8.32 2.454-16.384 6.79-23.646 11.704-1.908-0.23-3.846-0.364-5.816-0.364-26.51 0-48 21.49-48 48s21.49 48 48 48c25.86 0 46.934-20.454 47.952-46.064 10.092-2.964 19.776-5.318 34.19-5.548 6.334 66.03 26.608 126.966 57.226 178.448-28.332 22.012-45.764 46.032-53.21 72.634 0 0-1.5 0.876-3.746 2.732-1.964 1.588-3.864 3.3-5.608 5.238-17.73 19.71-16.124 50.062 3.586 67.79 19.708 17.73 50.056 16.124 67.786-3.586 16.174-17.976 16.19-44.762 1.116-62.79 6.148-11.124 12.472-18.028 27.34-29.922C342.736 850.47 415.446 891.238 496 896L496 445.744C389.528 439.908 298.458 376.276 253.672 285.648z" p-id="1848" /><path d="M912 512.228c-1.97 0-3.908 0.132-5.816 0.364-7.262-4.914-15.326-9.25-23.646-11.704-13.708-4.042-28.894-7.83-50.948-8.244-1.938-46.25-10.7-90.336-25.09-130.854 12.824-7.114 22.042-14.334 30.408-21.348 12.456-10.432 21.462-26.556 27.096-39.094 2.616-0.916 5.192-2.056 7.694-3.458 23.116-12.97 31.344-42.228 18.374-65.346-12.97-23.122-42.226-31.346-65.348-18.378-22.19 12.45-30.648 39.894-19.828 62.522-3.184 6.802-6.75 12.738-9.092 14.7-4.852 4.066-9.638 7.866-15.49 11.546-3.192-5.882-6.536-11.634-9.984-17.288-44.786 90.628-135.856 154.26-242.328 160.096L528.002 896c80.554-4.762 153.264-45.53 207.372-108.84 14.868 11.894 21.192 18.798 27.34 29.922-15.074 18.028-15.058 44.812 1.116 62.79 17.728 19.71 48.076 21.316 67.786 3.586 19.708-17.726 21.316-48.078 3.586-67.79-1.744-1.938-3.642-3.65-5.608-5.238-2.246-1.858-3.746-2.732-3.746-2.732-7.448-26.604-24.878-50.624-53.21-72.634 30.62-51.48 50.892-112.418 57.226-178.448 14.414 0.23 24.098 2.584 34.19 5.548 1.018 25.612 22.092 46.064 47.952 46.064 26.51 0 48-21.49 48-48S938.51 512.228 912 512.228z" p-id="1849" /></symbol><symbol class="icon" viewBox="0 0 1024 1024" id="chrome"><defs><style type="text/css">@font-face { font-weight: 400; font-style: normal; font-family: Inter-Loom; src: url("https://cdn.useloom.com/assets/fonts/inter/Inter-UI-Regular.woff2") format("woff2"); }
@font-face { font-weight: 400; font-style: italic; font-family: Inter-Loom; src: url("https://cdn.useloom.com/assets/fonts/inter/Inter-UI-Italic.woff2") format("woff2"); }
@font-face { font-weight: 500; font-style: normal; font-family: Inter-Loom; src: url("https://cdn.useloom.com/assets/fonts/inter/Inter-UI-Medium.woff2") format("woff2"); }
@font-face { font-weight: 500; font-style: italic; font-family: Inter-Loom; src: url("https://cdn.useloom.com/assets/fonts/inter/Inter-UI-MediumItalic.woff2") format("woff2"); }
@font-face { font-weight: 700; font-style: normal; font-family: Inter-Loom; src: url("https://cdn.useloom.com/assets/fonts/inter/Inter-UI-Bold.woff2") format("woff2"); }
@font-face { font-weight: 700; font-style: italic; font-family: Inter-Loom; src: url("https://cdn.useloom.com/assets/fonts/inter/Inter-UI-BoldItalic.woff2") format("woff2"); }
@font-face { font-weight: 900; font-style: normal; font-family: Inter-Loom; src: url("https://cdn.useloom.com/assets/fonts/inter/Inter-UI-Black.woff2") format("woff2"); }
@font-face { font-weight: 900; font-style: italic; font-family: Inter-Loom; src: url("https://cdn.useloom.com/assets/fonts/inter/Inter-UI-BlackItalic.woff2") format("woff2"); }
</style></defs><path d="M515.436 312.315H914.285C840.842 165.045 688.748 63.868 513 63.868c-141.284 0-267.274 65.395-349.42 167.546l151.66 262.682c8.535-102.325 95.704-181.781 200.196-181.781z" p-id="1690" /><path d="M514.218 345.197c-91.476 0-165.631 74.155-165.631 165.631s74.155 165.631 165.631 165.631c52.7 0 99.615-24.642 129.95-62.999l1.428-2.474 0.355 0.205c21.252-27.852 33.898-62.624 33.898-100.363 0-84.774-63.702-154.626-145.841-164.413l-6.393-0.632c-4.424-0.354-8.882-0.586-13.397-0.586z" p-id="1691" /><path d="M929.561 346.415H627.443c52.209 36.066 86.506 96.297 86.506 164.413 0 45.547-18.268 81.598-41.12 121.192L483.898 959.257c9.624 0.617 19.322 0.966 29.102 0.966 247.521 0 448.177-200.656 448.177-448.177 0-58.508-11.225-114.391-31.616-165.631z" p-id="1692" /><path d="M514.218 710.559c-83.583 0-144.927-54.804-185.034-124.651l-0.235 0.136-187.482-324.727C93.081 332.876 64.823 419.16 64.823 512.046c0 225.02 165.839 411.288 381.958 443.298l152.278-263.752c-25.769 12.143-54.518 18.967-84.841 18.967z" p-id="1693" /></symbol><symbol class="icon" viewBox="0 0 1024 1024" id="github"><defs><style type="text/css">@font-face { font-weight: 400; font-style: normal; font-family: Inter-Loom; src: url("https://cdn.useloom.com/assets/fonts/inter/Inter-UI-Regular.woff2") format("woff2"); }
@font-face { font-weight: 400; font-style: italic; font-family: Inter-Loom; src: url("https://cdn.useloom.com/assets/fonts/inter/Inter-UI-Italic.woff2") format("woff2"); }
@font-face { font-weight: 500; font-style: normal; font-family: Inter-Loom; src: url("https://cdn.useloom.com/assets/fonts/inter/Inter-UI-Medium.woff2") format("woff2"); }
@font-face { font-weight: 500; font-style: italic; font-family: Inter-Loom; src: url("https://cdn.useloom.com/assets/fonts/inter/Inter-UI-MediumItalic.woff2") format("woff2"); }
@font-face { font-weight: 700; font-style: normal; font-family: Inter-Loom; src: url("https://cdn.useloom.com/assets/fonts/inter/Inter-UI-Bold.woff2") format("woff2"); }
@font-face { font-weight: 700; font-style: italic; font-family: Inter-Loom; src: url("https://cdn.useloom.com/assets/fonts/inter/Inter-UI-BoldItalic.woff2") format("woff2"); }
@font-face { font-weight: 900; font-style: normal; font-family: Inter-Loom; src: url("https://cdn.useloom.com/assets/fonts/inter/Inter-UI-Black.woff2") format("woff2"); }
@font-face { font-weight: 900; font-style: italic; font-family: Inter-Loom; src: url("https://cdn.useloom.com/assets/fonts/inter/Inter-UI-BlackItalic.woff2") format("woff2"); }
</style></defs><path d="M347.8 794.8c0 4-4.6 7.2-10.4 7.2-6.6 0.6-11.2-2.6-11.2-7.2 0-4 4.6-7.2 10.4-7.2 6-0.6 11.2 2.6 11.2 7.2z m-62.2-9c-1.4 4 2.6 8.6 8.6 9.8 5.2 2 11.2 0 12.4-4s-2.6-8.6-8.6-10.4c-5.2-1.4-11 0.6-12.4 4.6z m88.4-3.4c-5.8 1.4-9.8 5.2-9.2 9.8 0.6 4 5.8 6.6 11.8 5.2 5.8-1.4 9.8-5.2 9.2-9.2-0.6-3.8-6-6.4-11.8-5.8zM505.6 16C228.2 16 16 226.6 16 504c0 221.8 139.6 411.6 339 478.4 25.6 4.6 34.6-11.2 34.6-24.2 0-12.4-0.6-80.8-0.6-122.8 0 0-140 30-169.4-59.6 0 0-22.8-58.2-55.6-73.2 0 0-45.8-31.4 3.2-30.8 0 0 49.8 4 77.2 51.6 43.8 77.2 117.2 55 145.8 41.8 4.6-32 17.6-54.2 32-67.4-111.8-12.4-224.6-28.6-224.6-221 0-55 15.2-82.6 47.2-117.8-5.2-13-22.2-66.6 5.2-135.8 41.8-13 138 54 138 54 40-11.2 83-17 125.6-17s85.6 5.8 125.6 17c0 0 96.2-67.2 138-54 27.4 69.4 10.4 122.8 5.2 135.8 32 35.4 51.6 63 51.6 117.8 0 193-117.8 208.4-229.6 221 18.4 15.8 34 45.8 34 92.8 0 67.4-0.6 150.8-0.6 167.2 0 13 9.2 28.8 34.6 24.2C872.4 915.6 1008 725.8 1008 504 1008 226.6 783 16 505.6 16zM210.4 705.8c-2.6 2-2 6.6 1.4 10.4 3.2 3.2 7.8 4.6 10.4 2 2.6-2 2-6.6-1.4-10.4-3.2-3.2-7.8-4.6-10.4-2z m-21.6-16.2c-1.4 2.6 0.6 5.8 4.6 7.8 3.2 2 7.2 1.4 8.6-1.4 1.4-2.6-0.6-5.8-4.6-7.8-4-1.2-7.2-0.6-8.6 1.4z m64.8 71.2c-3.2 2.6-2 8.6 2.6 12.4 4.6 4.6 10.4 5.2 13 2 2.6-2.6 1.4-8.6-2.6-12.4-4.4-4.6-10.4-5.2-13-2z m-22.8-29.4c-3.2 2-3.2 7.2 0 11.8 3.2 4.6 8.6 6.6 11.2 4.6 3.2-2.6 3.2-7.8 0-12.4-2.8-4.6-8-6.6-11.2-4z" fill="#000000" p-id="1806" /></symbol><symbol class="icon" viewBox="0 0 1024 1024" id="goods"><defs><style type="text/css">@font-face { font-weight: 400; font-style: normal; font-family: Inter-Loom; src: url("https://cdn.useloom.com/assets/fonts/inter/Inter-UI-Regular.woff2") format("woff2"); }
@font-face { font-weight: 400; font-style: italic; font-family: Inter-Loom; src: url("https://cdn.useloom.com/assets/fonts/inter/Inter-UI-Italic.woff2") format("woff2"); }
@font-face { font-weight: 500; font-style: normal; font-family: Inter-Loom; src: url("https://cdn.useloom.com/assets/fonts/inter/Inter-UI-Medium.woff2") format("woff2"); }
@font-face { font-weight: 500; font-style: italic; font-family: Inter-Loom; src: url("https://cdn.useloom.com/assets/fonts/inter/Inter-UI-MediumItalic.woff2") format("woff2"); }
@font-face { font-weight: 700; font-style: normal; font-family: Inter-Loom; src: url("https://cdn.useloom.com/assets/fonts/inter/Inter-UI-Bold.woff2") format("woff2"); }
@font-face { font-weight: 700; font-style: italic; font-family: Inter-Loom; src: url("https://cdn.useloom.com/assets/fonts/inter/Inter-UI-BoldItalic.woff2") format("woff2"); }
@font-face { font-weight: 900; font-style: normal; font-family: Inter-Loom; src: url("https://cdn.useloom.com/assets/fonts/inter/Inter-UI-Black.woff2") format("woff2"); }
@font-face { font-weight: 900; font-style: italic; font-family: Inter-Loom; src: url("https://cdn.useloom.com/assets/fonts/inter/Inter-UI-BlackItalic.woff2") format("woff2"); }
</style></defs><path d="M195.862109 632.346469l0 156.818877 307.488123 92.337595L503.350233 628.759101l-40.998403 85.584174L195.862109 632.346469zM847.058598 397.630606l125.178329-143.494511L651.291129 166.340021l-125.218502 140.748572-125.218302-140.748572L79.907527 254.136096l125.179528 143.494511 320.985772-90.110305L847.058598 397.630606zM526.072827 485.6931l-320.985772-88.062494-89.171542 177.317978 320.812489 88.146637 89.344624-176.71019 89.344824 176.71019 320.812689-88.146637-89.171542-177.317978L526.072827 485.6931zM548.795021 628.759101l0 252.74384 307.488123-92.337595 0-156.818877L589.793624 714.343275 548.795021 628.759101z" p-id="1536" /></symbol><symbol class="icon" viewBox="0 0 1024 1024" id="html"><defs><style type="text/css">@font-face { font-weight: 400; font-style: normal; font-family: Inter-Loom; src: url("https://cdn.useloom.com/assets/fonts/inter/Inter-UI-Regular.woff2") format("woff2"); }
@font-face { font-weight: 400; font-style: italic; font-family: Inter-Loom; src: url("https://cdn.useloom.com/assets/fonts/inter/Inter-UI-Italic.woff2") format("woff2"); }
@font-face { font-weight: 500; font-style: normal; font-family: Inter-Loom; src: url("https://cdn.useloom.com/assets/fonts/inter/Inter-UI-Medium.woff2") format("woff2"); }
@font-face { font-weight: 500; font-style: italic; font-family: Inter-Loom; src: url("https://cdn.useloom.com/assets/fonts/inter/Inter-UI-MediumItalic.woff2") format("woff2"); }
@font-face { font-weight: 700; font-style: normal; font-family: Inter-Loom; src: url("https://cdn.useloom.com/assets/fonts/inter/Inter-UI-Bold.woff2") format("woff2"); }
@font-face { font-weight: 700; font-style: italic; font-family: Inter-Loom; src: url("https://cdn.useloom.com/assets/fonts/inter/Inter-UI-BoldItalic.woff2") format("woff2"); }
@font-face { font-weight: 900; font-style: normal; font-family: Inter-Loom; src: url("https://cdn.useloom.com/assets/fonts/inter/Inter-UI-Black.woff2") format("woff2"); }
@font-face { font-weight: 900; font-style: italic; font-family: Inter-Loom; src: url("https://cdn.useloom.com/assets/fonts/inter/Inter-UI-BlackItalic.woff2") format("woff2"); }
</style></defs><path d="M869.56139 992.952238l-0.448112 0.256064-0.768192 0.32008c-16.004001 18.692673-38.473618 30.407602-63.11978 30.407602l-586.386597 0c-24.646162 0-47.115779-11.714929-63.631908-30.727682l0-0.256064-0.256064 0.256064C138.434609 974.003501 128.384096 947.180795 128.384096 918.437609L128.384096 105.562391c0-28.807202 10.050513-55.053763 26.566642-74.002501C171.722931 12.227057 194.128532 0 218.83871 0l399.587897 0c8.898225 0 17.732433 4.737184 23.941985 11.714929l243.452863 284.67917c6.72168 8.386097 9.794449 18.180545 9.794449 28.487122l0 0.576144 0 593.044261C895.615904 947.180795 885.565391 973.427357 869.56139 992.952238zM396.803201 518.913728C408.646162 510.527632 412.615154 491.642911 405.317329 478.391598c-6.977744-14.339585-23.045761-18.884721-34.888722-10.498625L202.130533 582.865716c-15.491873 11.522881-16.068017 39.113778 0 50.700675l168.234059 115.292823c11.842961 8.386097 27.910978 4.16104 34.888722-10.114529 7.297824-13.955489 3.328832-32.136034-8.514129-40.522131L265.634409 608.088022 396.803201 518.913728zM584.498125 386.08052C571.182796 380.127032 556.523131 387.808952 551.08177 402.852713l-130.592648 389.793448c-5.185296 14.659665 1.216304 32.136034 14.275569 38.089522C448.464116 837.009252 462.995749 829.327332 468.501125 813.963491l130.592648-390.113528C603.95899 409.190298 597.237309 392.354089 584.498125 386.08052zM614.265566 478.391598C606.967742 491.642911 610.616654 510.527632 622.779695 518.913728l131.168792 89.174294-131.168792 90.19855c-12.163041 8.386097-15.811953 26.566642-8.514129 40.522131 7.297824 14.339585 23.109777 18.564641 34.952738 10.114529l167.593898-115.292823c17.348337-11.586897 16.708177-39.177794 0-50.700675L649.218305 467.892973C637.375344 459.506877 621.563391 464.052013 614.265566 478.391598zM640.384096 126.87972l0 148.709177c0 11.650913 4.993248 22.917729 12.035009 30.663666L653.315329 307.468867c8.258065 8.322081 19.716929 13.379345 32.072018 13.379345l146.852713 0L640.384096 126.87972z" p-id="1828" fill="#000000" /></symbol><symbol class="icon" viewBox="0 0 1024 1024" id="javascript"><defs><style type="text/css">@font-face { font-weight: 400; font-style: normal; font-family: Inter-Loom; src: url("https://cdn.useloom.com/assets/fonts/inter/Inter-UI-Regular.woff2") format("woff2"); }
@font-face { font-weight: 400; font-style: italic; font-family: Inter-Loom; src: url("https://cdn.useloom.com/assets/fonts/inter/Inter-UI-Italic.woff2") format("woff2"); }
@font-face { font-weight: 500; font-style: normal; font-family: Inter-Loom; src: url("https://cdn.useloom.com/assets/fonts/inter/Inter-UI-Medium.woff2") format("woff2"); }
@font-face { font-weight: 500; font-style: italic; font-family: Inter-Loom; src: url("https://cdn.useloom.com/assets/fonts/inter/Inter-UI-MediumItalic.woff2") format("woff2"); }
@font-face { font-weight: 700; font-style: normal; font-family: Inter-Loom; src: url("https://cdn.useloom.com/assets/fonts/inter/Inter-UI-Bold.woff2") format("woff2"); }
@font-face { font-weight: 700; font-style: italic; font-family: Inter-Loom; src: url("https://cdn.useloom.com/assets/fonts/inter/Inter-UI-BoldItalic.woff2") format("woff2"); }
@font-face { font-weight: 900; font-style: normal; font-family: Inter-Loom; src: url("https://cdn.useloom.com/assets/fonts/inter/Inter-UI-Black.woff2") format("woff2"); }
@font-face { font-weight: 900; font-style: italic; font-family: Inter-Loom; src: url("https://cdn.useloom.com/assets/fonts/inter/Inter-UI-BlackItalic.woff2") format("woff2"); }
</style></defs><path d="M0 0h1024v1024H0V0z m940.117333 779.776c-7.466667-46.72-37.888-85.973333-128.128-122.581333-31.402667-14.72-66.304-24.96-76.672-48.64-3.882667-14.08-4.48-21.76-1.962666-30.08 6.4-27.562667 39.04-35.84 64.64-28.16 16.64 5.12 32 17.92 41.642666 38.4 44.117333-28.842667 44.117333-28.842667 74.88-48-11.52-17.92-17.237333-25.642667-25.002666-33.28-26.88-30.08-62.677333-45.44-120.917334-44.117334l-30.08 3.797334c-28.842667 7.04-56.32 22.4-72.96 42.88-48.64 55.082667-34.602667 151.082667 24.277334 190.762666 58.24 43.52 143.402667 53.077333 154.282666 94.08 10.24 49.92-37.12 65.92-83.882666 60.16-34.602667-7.68-53.76-25.002667-74.88-57.002666l-78.08 44.842666c8.96 20.48 19.2 29.397333 34.56 47.317334 74.24 74.922667 259.84 71.082667 293.162666-42.837334 1.237333-3.84 10.24-30.08 3.157334-70.4l1.962666 2.858667z m-383.274666-309.12h-95.914667c0 82.688-0.384 164.864-0.384 247.68 0 52.565333 2.688 100.821333-5.888 115.669333-14.08 29.397333-50.346667 25.642667-66.816 20.48-16.896-8.362667-25.472-19.882667-35.413333-36.48-2.688-4.48-4.693333-8.362667-5.418667-8.362666l-77.866667 48c13.013333 26.88 32 50.005333 56.490667 64.725333 36.48 21.76 85.504 28.8 136.832 17.28 33.408-9.642667 62.208-29.482667 77.269333-60.202667 21.76-39.68 17.152-88.32 16.938667-142.762666 0.512-87.637333 0-175.317333 0-263.637334l0.170667-2.389333z" fill="" p-id="1329" /></symbol><symbol class="icon" viewBox="0 0 1024 1024" id="package"><defs><style type="text/css">@font-face { font-weight: 400; font-style: normal; font-family: Inter-Loom; src: url("https://cdn.useloom.com/assets/fonts/inter/Inter-UI-Regular.woff2") format("woff2"); }
@font-face { font-weight: 400; font-style: italic; font-family: Inter-Loom; src: url("https://cdn.useloom.com/assets/fonts/inter/Inter-UI-Italic.woff2") format("woff2"); }
@font-face { font-weight: 500; font-style: normal; font-family: Inter-Loom; src: url("https://cdn.useloom.com/assets/fonts/inter/Inter-UI-Medium.woff2") format("woff2"); }
@font-face { font-weight: 500; font-style: italic; font-family: Inter-Loom; src: url("https://cdn.useloom.com/assets/fonts/inter/Inter-UI-MediumItalic.woff2") format("woff2"); }
@font-face { font-weight: 700; font-style: normal; font-family: Inter-Loom; src: url("https://cdn.useloom.com/assets/fonts/inter/Inter-UI-Bold.woff2") format("woff2"); }
@font-face { font-weight: 700; font-style: italic; font-family: Inter-Loom; src: url("https://cdn.useloom.com/assets/fonts/inter/Inter-UI-BoldItalic.woff2") format("woff2"); }
@font-face { font-weight: 900; font-style: normal; font-family: Inter-Loom; src: url("https://cdn.useloom.com/assets/fonts/inter/Inter-UI-Black.woff2") format("woff2"); }
@font-face { font-weight: 900; font-style: italic; font-family: Inter-Loom; src: url("https://cdn.useloom.com/assets/fonts/inter/Inter-UI-BlackItalic.woff2") format("woff2"); }
</style></defs><path d="M874.338462 472.615385h-155.569231l-64.984616 78.76923H866.461538v118.153847H157.538462v-118.153847h210.707692l-64.984616-78.76923H149.661538c-39.384615 0-70.892308 31.507692-70.892307 70.892307V925.538462c0 33.476923 25.6 59.076923 59.076923 59.076923h748.307692c33.476923 0 59.076923-25.6 59.076923-59.076923V543.507692c0-39.384615-31.507692-70.892308-70.892307-70.892307zM452.923077 68.923077V315.076923h-135.876923c-19.692308 0-29.538462 17.723077-17.723077 27.569231l196.923077 242.215384c7.876923 5.907692 19.692308 5.907692 27.569231 0l196.923077-242.215384c11.815385-11.815385 1.969231-27.569231-17.723077-27.569231H571.076923V68.923077c0-15.753846-13.784615-29.538462-29.538461-29.538462h-59.076924c-15.753846 0-29.538462 13.784615-29.538461 29.538462z" p-id="1524" /></symbol><symbol class="icon" viewBox="0 0 1024 1024" id="performance"><defs><style type="text/css">@font-face { font-weight: 400; font-style: normal; font-family: Inter-Loom; src: url("https://cdn.useloom.com/assets/fonts/inter/Inter-UI-Regular.woff2") format("woff2"); }
@font-face { font-weight: 400; font-style: italic; font-family: Inter-Loom; src: url("https://cdn.useloom.com/assets/fonts/inter/Inter-UI-Italic.woff2") format("woff2"); }
@font-face { font-weight: 500; font-style: normal; font-family: Inter-Loom; src: url("https://cdn.useloom.com/assets/fonts/inter/Inter-UI-Medium.woff2") format("woff2"); }
@font-face { font-weight: 500; font-style: italic; font-family: Inter-Loom; src: url("https://cdn.useloom.com/assets/fonts/inter/Inter-UI-MediumItalic.woff2") format("woff2"); }
@font-face { font-weight: 700; font-style: normal; font-family: Inter-Loom; src: url("https://cdn.useloom.com/assets/fonts/inter/Inter-UI-Bold.woff2") format("woff2"); }
@font-face { font-weight: 700; font-style: italic; font-family: Inter-Loom; src: url("https://cdn.useloom.com/assets/fonts/inter/Inter-UI-BoldItalic.woff2") format("woff2"); }
@font-face { font-weight: 900; font-style: normal; font-family: Inter-Loom; src: url("https://cdn.useloom.com/assets/fonts/inter/Inter-UI-Black.woff2") format("woff2"); }
@font-face { font-weight: 900; font-style: italic; font-family: Inter-Loom; src: url("https://cdn.useloom.com/assets/fonts/inter/Inter-UI-BlackItalic.woff2") format("woff2"); }
</style></defs><path d="M916.98 748.973l-0.658-555.705-810.582 0.996-0.739 554.366v0.525l-75.642-0.051v69.314h961.744l0.061-69.287-74.183-0.159zM843.145 749.263l-4.489-0.020h-661.412l0.815-486.892 665.116 0.705-0.025 486.208z" p-id="1431" fill="#000000" /><path d="M400.726 515.349l149.246 134.11 207.683-184.14-47.085-47.084-159.757 147.984-151.558-133.481-124.863 116.034 40.991 44.775 85.344-78.194z" p-id="1432" fill="#000000" /></symbol><symbol class="icon" viewBox="0 0 1024 1024" id="thought"><defs><style type="text/css">@font-face { font-weight: 400; font-style: normal; font-family: Inter-Loom; src: url("https://cdn.useloom.com/assets/fonts/inter/Inter-UI-Regular.woff2") format("woff2"); }
@font-face { font-weight: 400; font-style: italic; font-family: Inter-Loom; src: url("https://cdn.useloom.com/assets/fonts/inter/Inter-UI-Italic.woff2") format("woff2"); }
@font-face { font-weight: 500; font-style: normal; font-family: Inter-Loom; src: url("https://cdn.useloom.com/assets/fonts/inter/Inter-UI-Medium.woff2") format("woff2"); }
@font-face { font-weight: 500; font-style: italic; font-family: Inter-Loom; src: url("https://cdn.useloom.com/assets/fonts/inter/Inter-UI-MediumItalic.woff2") format("woff2"); }
@font-face { font-weight: 700; font-style: normal; font-family: Inter-Loom; src: url("https://cdn.useloom.com/assets/fonts/inter/Inter-UI-Bold.woff2") format("woff2"); }
@font-face { font-weight: 700; font-style: italic; font-family: Inter-Loom; src: url("https://cdn.useloom.com/assets/fonts/inter/Inter-UI-BoldItalic.woff2") format("woff2"); }
@font-face { font-weight: 900; font-style: normal; font-family: Inter-Loom; src: url("https://cdn.useloom.com/assets/fonts/inter/Inter-UI-Black.woff2") format("woff2"); }
@font-face { font-weight: 900; font-style: italic; font-family: Inter-Loom; src: url("https://cdn.useloom.com/assets/fonts/inter/Inter-UI-BlackItalic.woff2") format("woff2"); }
</style></defs><path d="M661.333333 448c23.466667 0 42.666667 19.2 42.666667 42.666667s-19.2 42.666667-42.666667 42.666666-42.666667-19.2-42.666666-42.666666 19.2-42.666667 42.666666-42.666667zM701.866667 266.666667c-6.4-29.866667-42.666667-53.333333-83.2-53.333334-36.266667 0-68.266667 17.066667-81.066667 42.666667H531.2c-10.666667-25.6-42.666667-42.666667-81.066667-42.666667-42.666667 0-76.8 23.466667-83.2 53.333334s14.933333 29.866667 32 40.533333c14.933333 8.533333 32 12.8 53.333334 12.8 25.6 0 49.066667-8.533333 64-21.333333v85.333333c0 12.8 8.533333 21.333333 21.333333 21.333333s21.333333-8.533333 21.333333-21.333333v-85.333333c14.933333 12.8 38.4 21.333333 61.866667 21.333333 19.2 0 38.4-4.266667 53.333333-12.8 12.8-10.666667 34.133333-10.666667 27.733334-40.533333z" fill="#000000" p-id="1262" /><path d="M544 64c-181.333333 0-330.666667 162.133333-330.666667 362.666667v6.4l-53.333333 115.2c-2.133333 4.266667-2.133333 10.666667 0 17.066666 2.133333 4.266667 6.4 10.666667 10.666667 12.8l85.333333 40.533334v151.466666c0 12.8 8.533333 21.333333 21.333333 21.333334h106.666667v149.333333c0 12.8 8.533333 21.333333 21.333333 21.333333h298.666667c12.8 0 21.333333-8.533333 21.333333-21.333333v-209.066667c93.866667-68.266667 149.333333-181.333333 149.333334-302.933333 0-202.666667-149.333333-364.8-330.666667-364.8z m155.733333 631.466667l-8.533333 6.4c-6.4 4.266667-8.533333 10.666667-8.533333 17.066666v198.4h-256v-149.333333c0-12.8-8.533333-21.333333-21.333334-21.333333h-106.666666v-142.933334c0-8.533333-4.266667-14.933333-12.8-19.2l-78.933334-36.266666 46.933334-100.266667c2.133333-2.133333 2.133333-6.4 2.133333-8.533333v-10.666667c0-177.066667 130.133333-320 288-320s288 142.933333 288 320c0 106.666667-49.066667 206.933333-132.266667 266.666667z" fill="#000000" p-id="1263" /><path d="M629.333333 362.666667h-192c-17.066667 0-32 14.933333-32 32v64c0 53.333333 42.666667 96 96 96h64c53.333333 0 96-42.666667 96-96v-64c0-17.066667-14.933333-32-32-32z m-10.666666 42.666666v27.733334h-170.666667v-27.733334h170.666667z m-53.333334 106.666667h-64c-29.866667 0-53.333333-23.466667-53.333333-53.333333v-4.266667h170.666667v4.266667c0 29.866667-23.466667 53.333333-53.333334 53.333333z" fill="#000000" p-id="1264" /></symbol><symbol class="icon" viewBox="0 0 1024 1024" id="vscode"><defs><style type="text/css">@font-face { font-weight: 400; font-style: normal; font-family: Inter-Loom; src: url("https://cdn.loom.com/assets/fonts/inter/Inter-UI-Regular.woff2") format("woff2"); }
@font-face { font-weight: 400; font-style: italic; font-family: Inter-Loom; src: url("https://cdn.loom.com/assets/fonts/inter/Inter-UI-Italic.woff2") format("woff2"); }
@font-face { font-weight: 500; font-style: normal; font-family: Inter-Loom; src: url("https://cdn.loom.com/assets/fonts/inter/Inter-UI-Medium.woff2") format("woff2"); }
@font-face { font-weight: 500; font-style: italic; font-family: Inter-Loom; src: url("https://cdn.loom.com/assets/fonts/inter/Inter-UI-MediumItalic.woff2") format("woff2"); }
@font-face { font-weight: 700; font-style: normal; font-family: Inter-Loom; src: url("https://cdn.loom.com/assets/fonts/inter/Inter-UI-Bold.woff2") format("woff2"); }
@font-face { font-weight: 700; font-style: italic; font-family: Inter-Loom; src: url("https://cdn.loom.com/assets/fonts/inter/Inter-UI-BoldItalic.woff2") format("woff2"); }
@font-face { font-weight: 900; font-style: normal; font-family: Inter-Loom; src: url("https://cdn.loom.com/assets/fonts/inter/Inter-UI-Black.woff2") format("woff2"); }
@font-face { font-weight: 900; font-style: italic; font-family: Inter-Loom; src: url("https://cdn.loom.com/assets/fonts/inter/Inter-UI-BlackItalic.woff2") format("woff2"); }
</style></defs><path d="M725.333333 362.666667l-202.666666 162.986666L725.333333 682.666667V362.666667M200.533333 785.066667L85.333333 712.533333v-384l128-42.666666 183.466667 142.08L768 85.333333l170.666667 106.666667V853.333333l-213.333334 85.333334-326.826666-313.173334L200.533333 785.066667M213.333333 597.333333l79.36-73.386666L213.333333 448V597.333333z" fill="#000000" p-id="1314" /></symbol><symbol class="icon" viewBox="0 0 1024 1024" id="vue"><defs><style type="text/css">@font-face { font-weight: 400; font-style: normal; font-family: Inter-Loom; src: url("https://cdn.useloom.com/assets/fonts/inter/Inter-UI-Regular.woff2") format("woff2"); }
@font-face { font-weight: 400; font-style: italic; font-family: Inter-Loom; src: url("https://cdn.useloom.com/assets/fonts/inter/Inter-UI-Italic.woff2") format("woff2"); }
@font-face { font-weight: 500; font-style: normal; font-family: Inter-Loom; src: url("https://cdn.useloom.com/assets/fonts/inter/Inter-UI-Medium.woff2") format("woff2"); }
@font-face { font-weight: 500; font-style: italic; font-family: Inter-Loom; src: url("https://cdn.useloom.com/assets/fonts/inter/Inter-UI-MediumItalic.woff2") format("woff2"); }
@font-face { font-weight: 700; font-style: normal; font-family: Inter-Loom; src: url("https://cdn.useloom.com/assets/fonts/inter/Inter-UI-Bold.woff2") format("woff2"); }
@font-face { font-weight: 700; font-style: italic; font-family: Inter-Loom; src: url("https://cdn.useloom.com/assets/fonts/inter/Inter-UI-BoldItalic.woff2") format("woff2"); }
@font-face { font-weight: 900; font-style: normal; font-family: Inter-Loom; src: url("https://cdn.useloom.com/assets/fonts/inter/Inter-UI-Black.woff2") format("woff2"); }
@font-face { font-weight: 900; font-style: italic; font-family: Inter-Loom; src: url("https://cdn.useloom.com/assets/fonts/inter/Inter-UI-BlackItalic.woff2") format("woff2"); }
</style></defs><path d="M777.8 128.6H624l-112 177.2-96-177.2H64L512 896 960 128.6h-182.2z m-602.4 64h107.6L512 589 740.8 192.6h107.6L512 769 175.4 192.6z" fill="" p-id="3253" /></symbol><symbol class="icon" viewBox="0 0 1024 1024" id="webpack"><defs><style type="text/css">@font-face { font-weight: 400; font-style: normal; font-family: Inter-Loom; src: url("https://cdn.useloom.com/assets/fonts/inter/Inter-UI-Regular.woff2") format("woff2"); }
@font-face { font-weight: 400; font-style: italic; font-family: Inter-Loom; src: url("https://cdn.useloom.com/assets/fonts/inter/Inter-UI-Italic.woff2") format("woff2"); }
@font-face { font-weight: 500; font-style: normal; font-family: Inter-Loom; src: url("https://cdn.useloom.com/assets/fonts/inter/Inter-UI-Medium.woff2") format("woff2"); }
@font-face { font-weight: 500; font-style: italic; font-family: Inter-Loom; src: url("https://cdn.useloom.com/assets/fonts/inter/Inter-UI-MediumItalic.woff2") format("woff2"); }
@font-face { font-weight: 700; font-style: normal; font-family: Inter-Loom; src: url("https://cdn.useloom.com/assets/fonts/inter/Inter-UI-Bold.woff2") format("woff2"); }
@font-face { font-weight: 700; font-style: italic; font-family: Inter-Loom; src: url("https://cdn.useloom.com/assets/fonts/inter/Inter-UI-BoldItalic.woff2") format("woff2"); }
@font-face { font-weight: 900; font-style: normal; font-family: Inter-Loom; src: url("https://cdn.useloom.com/assets/fonts/inter/Inter-UI-Black.woff2") format("woff2"); }
@font-face { font-weight: 900; font-style: italic; font-family: Inter-Loom; src: url("https://cdn.useloom.com/assets/fonts/inter/Inter-UI-BlackItalic.woff2") format("woff2"); }
</style></defs><path d="M896.682667 773.12L526.933333 981.333333v-162.133333l230.357334-126.165333 139.349333 80.085333z m25.258666-22.784V314.88l-135.253333 77.696v279.893333l135.253333 77.824z m-797.098666 22.784L494.506667 981.333333v-162.133333l-230.314667-126.165333-139.349333 80.085333z m-25.301334-22.784V314.88l135.253334 77.696v279.893333l-135.253334 77.824zM115.370667 286.72l379.136-213.546667v156.757334L251.605333 362.965333l-1.834666 1.066667-134.4-77.312z m790.784 0L526.933333 73.173333v156.757334l242.901334 133.034666 1.834666 1.066667 134.4-77.312zM494.506667 782.293333l-227.285334-124.416V411.392l227.242667 130.645333v240.213334z m32.426666 0l227.242667-124.416V411.392l-227.242667 130.645333v240.213334zM282.666667 382.848l228.138666-124.928 228.138667 124.928-228.138667 131.2-228.138666-131.2z" fill="#000000" p-id="1268" /></symbol></defs><use id="API-usage" xlink:href="#API" class="sprite-symbol-usage" /><use id="CSS-usage" xlink:href="#CSS" class="sprite-symbol-usage" /><use id="ES6-usage" xlink:href="#ES6" class="sprite-symbol-usage" /><use id="Tools-usage" xlink:href="#Tools" class="sprite-symbol-usage" /><use id="bug-usage" xlink:href="#bug" class="sprite-symbol-usage" /><use id="chrome-usage" xlink:href="#chrome" class="sprite-symbol-usage" /><use id="github-usage" xlink:href="#github" class="sprite-symbol-usage" /><use id="goods-usage" xlink:href="#goods" class="sprite-symbol-usage" /><use id="html-usage" xlink:href="#html" class="sprite-symbol-usage" /><use id="javascript-usage" xlink:href="#javascript" class="sprite-symbol-usage" /><use id="package-usage" xlink:href="#package" class="sprite-symbol-usage" /><use id="performance-usage" xlink:href="#performance" class="sprite-symbol-usage" /><use id="thought-usage" xlink:href="#thought" class="sprite-symbol-usage" /><use id="vscode-usage" xlink:href="#vscode" class="sprite-symbol-usage" /><use id="vue-usage" xlink:href="#vue" class="sprite-symbol-usage" /><use id="webpack-usage" xlink:href="#webpack" class="sprite-symbol-usage" /></svg>